# Exported manufacturing runtime mesh
mtllib beverage_stand.mtl

o beverage_stand_base
v -0.175909609 -0.050780863 -0.109576635
v -0.175909609 -0.050780863 0.000423364
v -0.175909609 0.349219143 -0.109576635
v -0.175909609 0.349219143 0.000423364
v 0.124090403 -0.050780863 -0.109576635
v 0.124090403 -0.050780863 0.000423364
v 0.124090403 0.349219143 -0.109576635
v 0.124090403 0.349219143 0.000423364
usemtl default_material
vn -1.000000000 0.000000000 0.000000000
vn -1.000000000 0.000000000 0.000000000
vn -1.000000000 0.000000000 0.000000000
f 1//1 2//2 4//3
vn -1.000000000 0.000000000 0.000000000
vn -1.000000000 0.000000000 0.000000000
vn -1.000000000 0.000000000 0.000000000
f 1//4 4//5 3//6
vn 0.000000000 1.000000000 0.000000000
vn 0.000000000 1.000000000 0.000000000
vn 0.000000000 1.000000000 0.000000000
f 3//7 4//8 8//9
vn 0.000000000 1.000000000 0.000000000
vn 0.000000000 1.000000000 0.000000000
vn 0.000000000 1.000000000 0.000000000
f 3//10 8//11 7//12
vn 1.000000000 0.000000000 0.000000000
vn 1.000000000 0.000000000 0.000000000
vn 1.000000000 0.000000000 0.000000000
f 7//13 8//14 6//15
vn 1.000000000 0.000000000 0.000000000
vn 1.000000000 0.000000000 0.000000000
vn 1.000000000 0.000000000 0.000000000
f 7//16 6//17 5//18
vn 0.000000000 -1.000000000 0.000000000
vn 0.000000000 -1.000000000 0.000000000
vn 0.000000000 -1.000000000 0.000000000
f 5//19 6//20 2//21
vn 0.000000000 -1.000000000 0.000000000
vn 0.000000000 -1.000000000 0.000000000
vn 0.000000000 -1.000000000 0.000000000
f 5//22 2//23 1//24
vn 0.000000000 0.000000000 -1.000000000
vn 0.000000000 0.000000000 -1.000000000
vn 0.000000000 0.000000000 -1.000000000
f 3//25 7//26 5//27
vn 0.000000000 0.000000000 -1.000000000
vn 0.000000000 0.000000000 -1.000000000
vn 0.000000000 0.000000000 -1.000000000
f 3//28 5//29 1//30
vn 0.000000000 0.000000000 1.000000000
vn 0.000000000 0.000000000 1.000000000
vn 0.000000000 0.000000000 1.000000000
f 8//31 4//32 2//33
vn 0.000000000 0.000000000 1.000000000
vn 0.000000000 0.000000000 1.000000000
vn 0.000000000 0.000000000 1.000000000
f 8//34 2//35 6//36

o beverage_stand_left_wall
v -0.175286442 0.338714898 0.000262484
v -0.175286442 0.338714898 0.155262485
v -0.175286442 0.348714888 0.000262484
v -0.175286442 0.348714888 0.155262485
v 0.124713570 0.338714898 0.000262484
v 0.124713570 0.338714898 0.021966435
v 0.124713570 0.348714888 0.000262484
v 0.124713570 0.348714888 0.021966435
v -0.055872858 0.338714898 0.155053496
v -0.055856355 0.348714888 0.155046165
usemtl default_material
vn -1.000000000 0.000000000 0.000000000
vn -1.000000000 0.000000000 0.000000000
vn -1.000000000 0.000000000 0.000000000
f 9//37 10//38 12//39
vn -1.000000000 0.000000000 0.000000000
vn -1.000000000 0.000000000 0.000000000
vn -1.000000000 0.000000000 0.000000000
f 9//40 12//41 11//42
vn 0.000000000 0.999999940 0.000000000
vn 0.000000000 0.999999940 0.000000000
vn 0.000000000 0.999999940 0.000000000
f 15//43 11//44 12//45
vn 0.000000000 0.999999940 0.000000000
vn 0.000000000 0.999999940 0.000000000
vn 0.000000000 0.999999940 0.000000000
f 12//46 18//47 16//48
vn 0.000000000 0.999999940 0.000000000
vn 0.000000000 0.999999940 0.000000000
vn 0.000000000 0.999999940 0.000000000
f 12//49 16//50 15//51
vn 1.000000000 0.000000000 0.000000000
vn 1.000000000 0.000000000 0.000000000
vn 1.000000000 0.000000000 0.000000000
f 15//52 16//53 14//54
vn 1.000000000 0.000000000 0.000000000
vn 1.000000000 0.000000000 0.000000000
vn 1.000000000 0.000000000 0.000000000
f 15//55 14//56 13//57
vn 0.000000000 -0.999999940 0.000000000
vn 0.000000000 -0.999999940 0.000000000
vn 0.000000000 -0.999999940 0.000000000
f 9//58 13//59 14//60
vn 0.000000000 -0.999999940 0.000000000
vn 0.000000000 -0.999999940 0.000000000
vn 0.000000000 -0.999999940 0.000000000
f 14//61 17//62 10//63
vn 0.000000000 -0.999999940 0.000000000
vn 0.000000000 -0.999999940 0.000000000
vn 0.000000000 -0.999999940 0.000000000
f 14//64 10//65 9//66
vn 0.000000000 0.000000000 -1.000000000
vn 0.000000000 0.000000000 -1.000000000
vn 0.000000000 0.000000000 -1.000000000
f 11//67 15//68 13//69
vn 0.000000000 0.000000000 -1.000000000
vn 0.000000000 0.000000000 -1.000000000
vn 0.000000000 0.000000000 -1.000000000
f 11//70 13//71 9//72
vn 0.593273461 -0.000194292 0.805000901
vn 0.593273461 -0.000194292 0.805000901
vn 0.593273461 -0.000194292 0.805000901
f 16//73 18//74 17//75
vn 0.593273461 -0.000194292 0.805000901
vn 0.593273461 -0.000194292 0.805000901
vn 0.593273461 -0.000194292 0.805000901
f 16//76 17//77 14//78
vn 0.001780756 0.000365307 0.999998331
vn 0.001780756 0.000365307 0.999998331
vn 0.001780756 0.000365307 0.999998331
f 17//79 18//80 12//81
vn 0.001780756 0.000365307 0.999998331
vn 0.001780756 0.000365307 0.999998331
vn 0.001780756 0.000365307 0.999998331
f 17//82 12//83 10//84

o beverage_stand_right_wall
v -0.174855024 -0.051435251 0.000420406
v -0.174855024 -0.051435251 0.155420408
v -0.174855024 -0.041435253 0.000420406
v -0.174855024 -0.041435253 0.155420408
v 0.125144988 -0.051435251 0.000420406
v 0.125144988 -0.051435251 0.022124358
v 0.125144988 -0.041435253 0.000420406
v 0.125144988 -0.041435253 0.022124358
v -0.055441439 -0.051435251 0.155211419
v -0.055424936 -0.041435253 0.155204087
usemtl default_material
vn -1.000000000 0.000000000 0.000000000
vn -1.000000000 0.000000000 0.000000000
vn -1.000000000 0.000000000 0.000000000
f 19//85 20//86 22//87
vn -1.000000000 0.000000000 0.000000000
vn -1.000000000 0.000000000 0.000000000
vn -1.000000000 0.000000000 0.000000000
f 19//88 22//89 21//90
vn 0.000000000 0.999999940 0.000000000
vn 0.000000000 0.999999940 0.000000000
vn 0.000000000 0.999999940 0.000000000
f 25//91 21//92 22//93
vn 0.000000000 0.999999940 0.000000000
vn 0.000000000 0.999999940 0.000000000
vn 0.000000000 0.999999940 0.000000000
f 22//94 28//95 26//96
vn 0.000000000 0.999999940 0.000000000
vn 0.000000000 0.999999940 0.000000000
vn 0.000000000 0.999999940 0.000000000
f 22//97 26//98 25//99
vn 1.000000000 0.000000000 0.000000000
vn 1.000000000 0.000000000 0.000000000
vn 1.000000000 0.000000000 0.000000000
f 25//100 26//101 24//102
vn 1.000000000 0.000000000 0.000000000
vn 1.000000000 0.000000000 0.000000000
vn 1.000000000 0.000000000 0.000000000
f 25//103 24//104 23//105
vn 0.000000000 -0.999999940 0.000000000
vn 0.000000000 -0.999999940 0.000000000
vn 0.000000000 -0.999999940 0.000000000
f 19//106 23//107 24//108
vn 0.000000000 -0.999999940 0.000000000
vn 0.000000000 -0.999999940 0.000000000
vn 0.000000000 -0.999999940 0.000000000
f 24//109 27//110 20//111
vn 0.000000000 -0.999999940 0.000000000
vn 0.000000000 -0.999999940 0.000000000
vn 0.000000000 -0.999999940 0.000000000
f 24//112 20//113 19//114
vn 0.000000000 0.000000000 -1.000000000
vn 0.000000000 0.000000000 -1.000000000
vn 0.000000000 0.000000000 -1.000000000
f 21//115 25//116 23//117
vn 0.000000000 0.000000000 -1.000000000
vn 0.000000000 0.000000000 -1.000000000
vn 0.000000000 0.000000000 -1.000000000
f 21//118 23//119 19//120
vn 0.593273461 -0.000194292 0.805000901
vn 0.593273461 -0.000194292 0.805000901
vn 0.593273461 -0.000194292 0.805000901
f 26//121 28//122 27//123
vn 0.593273461 -0.000194292 0.805000901
vn 0.593273461 -0.000194292 0.805000901
vn 0.593273461 -0.000194292 0.805000901
f 26//124 27//125 24//126
vn 0.001780756 0.000365307 0.999998331
vn 0.001780756 0.000365307 0.999998331
vn 0.001780756 0.000365307 0.999998331
f 27//127 28//128 22//129
vn 0.001780756 0.000365307 0.999998331
vn 0.001780756 0.000365307 0.999998331
vn 0.001780756 0.000365307 0.999998331
f 27//130 22//131 20//132

o beverage_stand_top
v -0.175363779 -0.051643714 0.155349404
v -0.175363779 -0.051643714 0.160349399
v -0.175363779 0.348356307 0.155349404
v -0.175363779 0.348356307 0.160349399
v -0.055363778 -0.051643714 0.155349404
v -0.055363778 -0.051643714 0.160349399
v -0.055363778 0.348356307 0.155349404
v -0.055363778 0.348356307 0.160349399
usemtl default_material
vn -1.000000000 0.000000000 0.000000000
vn -1.000000000 0.000000000 0.000000000
vn -1.000000000 0.000000000 0.000000000
f 29//133 30//134 32//135
vn -1.000000000 0.000000000 0.000000000
vn -1.000000000 0.000000000 0.000000000
vn -1.000000000 0.000000000 0.000000000
f 29//136 32//137 31//138
vn 0.000000000 1.000000000 0.000000000
vn 0.000000000 1.000000000 0.000000000
vn 0.000000000 1.000000000 0.000000000
f 31//139 32//140 36//141
vn 0.000000000 1.000000000 0.000000000
vn 0.000000000 1.000000000 0.000000000
vn 0.000000000 1.000000000 0.000000000
f 31//142 36//143 35//144
vn 1.000000000 0.000000000 0.000000000
vn 1.000000000 0.000000000 0.000000000
vn 1.000000000 0.000000000 0.000000000
f 35//145 36//146 34//147
vn 1.000000000 0.000000000 0.000000000
vn 1.000000000 0.000000000 0.000000000
vn 1.000000000 0.000000000 0.000000000
f 35//148 34//149 33//150
vn 0.000000000 -1.000000000 0.000000000
vn 0.000000000 -1.000000000 0.000000000
vn 0.000000000 -1.000000000 0.000000000
f 33//151 34//152 30//153
vn 0.000000000 -1.000000000 0.000000000
vn 0.000000000 -1.000000000 0.000000000
vn 0.000000000 -1.000000000 0.000000000
f 33//154 30//155 29//156
vn 0.000000000 0.000000000 -1.000000000
vn 0.000000000 0.000000000 -1.000000000
vn 0.000000000 0.000000000 -1.000000000
f 31//157 35//158 33//159
vn 0.000000000 0.000000000 -1.000000000
vn 0.000000000 0.000000000 -1.000000000
vn 0.000000000 0.000000000 -1.000000000
f 31//160 33//161 29//162
vn 0.000000000 0.000000000 1.000000000
vn 0.000000000 0.000000000 1.000000000
vn 0.000000000 0.000000000 1.000000000
f 36//163 32//164 30//165
vn 0.000000000 0.000000000 1.000000000
vn 0.000000000 0.000000000 1.000000000
vn 0.000000000 0.000000000 1.000000000
f 36//166 30//167 34//168
