# Exported manufacturing runtime mesh
mtllib case2.mtl

o case_back_001
v -0.071819544 -0.034844968 -0.012130990
v -0.071819544 -0.034844968 0.017869011
v -0.071819544 0.035155032 -0.012130990
v -0.071819544 0.035155032 0.017869011
v -0.066819549 -0.034844968 -0.012130990
v -0.066819549 -0.034844968 0.017869011
v -0.066819549 0.035155032 -0.012130990
v -0.066819549 0.035155032 0.017869011
usemtl default_material
vn -0.999999940 0.000000000 0.000000000
vn -0.999999940 0.000000000 0.000000000
vn -0.999999940 0.000000000 0.000000000
f 1//1 2//2 4//3
vn -0.999999940 0.000000000 0.000000000
vn -0.999999940 0.000000000 0.000000000
vn -0.999999940 0.000000000 0.000000000
f 1//4 4//5 3//6
vn 0.000000000 0.999999940 0.000000000
vn 0.000000000 0.999999940 0.000000000
vn 0.000000000 0.999999940 0.000000000
f 3//7 4//8 8//9
vn 0.000000000 0.999999940 0.000000000
vn 0.000000000 0.999999940 0.000000000
vn 0.000000000 0.999999940 0.000000000
f 3//10 8//11 7//12
vn 0.999999940 0.000000000 0.000000000
vn 0.999999940 0.000000000 0.000000000
vn 0.999999940 0.000000000 0.000000000
f 7//13 8//14 6//15
vn 0.999999940 0.000000000 0.000000000
vn 0.999999940 0.000000000 0.000000000
vn 0.999999940 0.000000000 0.000000000
f 7//16 6//17 5//18
vn 0.000000000 -0.999999940 0.000000000
vn 0.000000000 -0.999999940 0.000000000
vn 0.000000000 -0.999999940 0.000000000
f 5//19 6//20 2//21
vn 0.000000000 -0.999999940 0.000000000
vn 0.000000000 -0.999999940 0.000000000
vn 0.000000000 -0.999999940 0.000000000
f 5//22 2//23 1//24
vn 0.000000000 0.000000000 -1.000000000
vn 0.000000000 0.000000000 -1.000000000
vn 0.000000000 0.000000000 -1.000000000
f 3//25 7//26 5//27
vn 0.000000000 0.000000000 -1.000000000
vn 0.000000000 0.000000000 -1.000000000
vn 0.000000000 0.000000000 -1.000000000
f 3//28 5//29 1//30
vn 0.000000000 0.000000000 1.000000000
vn 0.000000000 0.000000000 1.000000000
vn 0.000000000 0.000000000 1.000000000
f 8//31 4//32 2//33
vn 0.000000000 0.000000000 1.000000000
vn 0.000000000 0.000000000 1.000000000
vn 0.000000000 0.000000000 1.000000000
f 8//34 2//35 6//36

o case_bottom_001
v -0.071838215 -0.034875009 -0.017437996
v -0.071838215 -0.034875009 -0.012437997
v -0.071838215 0.035124991 -0.017437996
v -0.071838215 0.035124991 -0.012437997
v 0.083161786 -0.034875009 -0.017437996
v 0.083161786 -0.034875009 -0.012437997
v 0.083161786 0.035124991 -0.017437996
v 0.083161786 0.035124991 -0.012437997
usemtl default_material
vn -1.000000000 0.000000000 0.000000000
vn -1.000000000 0.000000000 0.000000000
vn -1.000000000 0.000000000 0.000000000
f 9//37 10//38 12//39
vn -1.000000000 0.000000000 0.000000000
vn -1.000000000 0.000000000 0.000000000
vn -1.000000000 0.000000000 0.000000000
f 9//40 12//41 11//42
vn 0.000000000 1.000000000 0.000000000
vn 0.000000000 1.000000000 0.000000000
vn 0.000000000 1.000000000 0.000000000
f 11//43 12//44 16//45
vn 0.000000000 1.000000000 0.000000000
vn 0.000000000 1.000000000 0.000000000
vn 0.000000000 1.000000000 0.000000000
f 11//46 16//47 15//48
vn 1.000000000 0.000000000 0.000000000
vn 1.000000000 0.000000000 0.000000000
vn 1.000000000 0.000000000 0.000000000
f 15//49 16//50 14//51
vn 1.000000000 0.000000000 0.000000000
vn 1.000000000 0.000000000 0.000000000
vn 1.000000000 0.000000000 0.000000000
f 15//52 14//53 13//54
vn 0.000000000 -1.000000000 0.000000000
vn 0.000000000 -1.000000000 0.000000000
vn 0.000000000 -1.000000000 0.000000000
f 13//55 14//56 10//57
vn 0.000000000 -1.000000000 0.000000000
vn 0.000000000 -1.000000000 0.000000000
vn 0.000000000 -1.000000000 0.000000000
f 13//58 10//59 9//60
vn 0.000000000 0.000000000 -0.999999940
vn 0.000000000 0.000000000 -0.999999940
vn 0.000000000 0.000000000 -0.999999940
f 11//61 15//62 13//63
vn 0.000000000 0.000000000 -0.999999940
vn 0.000000000 0.000000000 -0.999999940
vn 0.000000000 0.000000000 -0.999999940
f 11//64 13//65 9//66
vn 0.000000000 0.000000000 0.999999940
vn 0.000000000 0.000000000 0.999999940
vn 0.000000000 0.000000000 0.999999940
f 16//67 12//68 10//69
vn 0.000000000 0.000000000 0.999999940
vn 0.000000000 0.000000000 0.999999940
vn 0.000000000 0.000000000 0.999999940
f 16//70 10//71 14//72

o case_left_001
v -0.066641584 0.027538385 -0.012485250
v -0.066641584 0.027538385 0.017514750
v -0.066641584 0.037538383 -0.012485250
v -0.066641584 0.037538383 0.017514750
v 0.083358422 0.027538385 -0.012485250
v 0.083358422 0.027538385 0.017514750
v 0.083358422 0.037538383 -0.012485250
v 0.083358422 0.037538383 0.017514750
usemtl default_material
vn -1.000000000 0.000000000 0.000000000
vn -1.000000000 0.000000000 0.000000000
vn -1.000000000 0.000000000 0.000000000
f 17//73 18//74 20//75
vn -1.000000000 0.000000000 0.000000000
vn -1.000000000 0.000000000 0.000000000
vn -1.000000000 0.000000000 0.000000000
f 17//76 20//77 19//78
vn 0.000000000 0.999999940 0.000000000
vn 0.000000000 0.999999940 0.000000000
vn 0.000000000 0.999999940 0.000000000
f 19//79 20//80 24//81
vn 0.000000000 0.999999940 0.000000000
vn 0.000000000 0.999999940 0.000000000
vn 0.000000000 0.999999940 0.000000000
f 19//82 24//83 23//84
vn 1.000000000 0.000000000 0.000000000
vn 1.000000000 0.000000000 0.000000000
vn 1.000000000 0.000000000 0.000000000
f 23//85 24//86 22//87
vn 1.000000000 0.000000000 0.000000000
vn 1.000000000 0.000000000 0.000000000
vn 1.000000000 0.000000000 0.000000000
f 23//88 22//89 21//90
vn 0.000000000 -0.999999940 0.000000000
vn 0.000000000 -0.999999940 0.000000000
vn 0.000000000 -0.999999940 0.000000000
f 21//91 22//92 18//93
vn 0.000000000 -0.999999940 0.000000000
vn 0.000000000 -0.999999940 0.000000000
vn 0.000000000 -0.999999940 0.000000000
f 21//94 18//95 17//96
vn 0.000000000 0.000000000 -1.000000000
vn 0.000000000 0.000000000 -1.000000000
vn 0.000000000 0.000000000 -1.000000000
f 19//97 23//98 21//99
vn 0.000000000 0.000000000 -1.000000000
vn 0.000000000 0.000000000 -1.000000000
vn 0.000000000 0.000000000 -1.000000000
f 19//100 21//101 17//102
vn 0.000000000 0.000000000 1.000000000
vn 0.000000000 0.000000000 1.000000000
vn 0.000000000 0.000000000 1.000000000
f 24//103 20//104 18//105
vn 0.000000000 0.000000000 1.000000000
vn 0.000000000 0.000000000 1.000000000
vn 0.000000000 0.000000000 1.000000000
f 24//106 18//107 22//108

o case_right_001
v -0.066641584 -0.037260596 -0.012485250
v -0.066641584 -0.037260596 0.017514750
v -0.066641584 -0.027260598 -0.012485250
v -0.066641584 -0.027260598 0.017514750
v 0.083358422 -0.037260596 -0.012485250
v 0.083358422 -0.037260596 0.017514750
v 0.083358422 -0.027260598 -0.012485250
v 0.083358422 -0.027260598 0.017514750
usemtl default_material
vn -1.000000000 0.000000000 0.000000000
vn -1.000000000 0.000000000 0.000000000
vn -1.000000000 0.000000000 0.000000000
f 25//109 26//110 28//111
vn -1.000000000 0.000000000 0.000000000
vn -1.000000000 0.000000000 0.000000000
vn -1.000000000 0.000000000 0.000000000
f 25//112 28//113 27//114
vn 0.000000000 0.999999940 0.000000000
vn 0.000000000 0.999999940 0.000000000
vn 0.000000000 0.999999940 0.000000000
f 27//115 28//116 32//117
vn 0.000000000 0.999999940 0.000000000
vn 0.000000000 0.999999940 0.000000000
vn 0.000000000 0.999999940 0.000000000
f 27//118 32//119 31//120
vn 1.000000000 0.000000000 0.000000000
vn 1.000000000 0.000000000 0.000000000
vn 1.000000000 0.000000000 0.000000000
f 31//121 32//122 30//123
vn 1.000000000 0.000000000 0.000000000
vn 1.000000000 0.000000000 0.000000000
vn 1.000000000 0.000000000 0.000000000
f 31//124 30//125 29//126
vn 0.000000000 -0.999999940 0.000000000
vn 0.000000000 -0.999999940 0.000000000
vn 0.000000000 -0.999999940 0.000000000
f 29//127 30//128 26//129
vn 0.000000000 -0.999999940 0.000000000
vn 0.000000000 -0.999999940 0.000000000
vn 0.000000000 -0.999999940 0.000000000
f 29//130 26//131 25//132
vn 0.000000000 0.000000000 -1.000000000
vn 0.000000000 0.000000000 -1.000000000
vn 0.000000000 0.000000000 -1.000000000
f 27//133 31//134 29//135
vn 0.000000000 0.000000000 -1.000000000
vn 0.000000000 0.000000000 -1.000000000
vn 0.000000000 0.000000000 -1.000000000
f 27//136 29//137 25//138
vn 0.000000000 0.000000000 1.000000000
vn 0.000000000 0.000000000 1.000000000
vn 0.000000000 0.000000000 1.000000000
f 32//139 28//140 26//141
vn 0.000000000 0.000000000 1.000000000
vn 0.000000000 0.000000000 1.000000000
vn 0.000000000 0.000000000 1.000000000
f 32//142 26//143 30//144
