# Exported manufacturing runtime mesh
mtllib kachup.mtl

o kachup_body
v 0.000000000 0.025000000 -0.075000003
v 0.000000000 0.025000000 0.075000003
v 0.004877258 0.024519632 -0.075000003
v 0.004877258 0.024519632 0.075000003
v 0.009567087 0.023096988 -0.075000003
v 0.009567087 0.023096988 0.075000003
v 0.013889256 0.020786740 -0.075000003
v 0.013889256 0.020786740 0.075000003
v 0.017677670 0.017677670 -0.075000003
v 0.017677670 0.017677670 0.075000003
v 0.020786740 0.013889256 -0.075000003
v 0.020786740 0.013889256 0.075000003
v 0.023096988 0.009567087 -0.075000003
v 0.023096988 0.009567087 0.075000003
v 0.024519632 0.004877258 -0.075000003
v 0.024519632 0.004877258 0.075000003
v 0.025000000 0.000000000 -0.075000003
v 0.025000000 0.000000000 0.075000003
v 0.024519632 -0.004877258 -0.075000003
v 0.024519632 -0.004877258 0.075000003
v 0.023096988 -0.009567087 -0.075000003
v 0.023096988 -0.009567087 0.075000003
v 0.020786740 -0.013889256 -0.075000003
v 0.020786740 -0.013889256 0.075000003
v 0.017677670 -0.017677670 -0.075000003
v 0.017677670 -0.017677670 0.075000003
v 0.013889256 -0.020786740 -0.075000003
v 0.013889256 -0.020786740 0.075000003
v 0.009567087 -0.023096988 -0.075000003
v 0.009567087 -0.023096988 0.075000003
v 0.004877258 -0.024519632 -0.075000003
v 0.004877258 -0.024519632 0.075000003
v 0.000000000 -0.025000000 -0.075000003
v 0.000000000 -0.025000000 0.075000003
v -0.004877258 -0.024519632 -0.075000003
v -0.004877258 -0.024519632 0.075000003
v -0.009567087 -0.023096988 -0.075000003
v -0.009567087 -0.023096988 0.075000003
v -0.013889256 -0.020786740 -0.075000003
v -0.013889256 -0.020786740 0.075000003
v -0.017677670 -0.017677670 -0.075000003
v -0.017677670 -0.017677670 0.075000003
v -0.020786740 -0.013889256 -0.075000003
v -0.020786740 -0.013889256 0.075000003
v -0.023096988 -0.009567087 -0.075000003
v -0.023096988 -0.009567087 0.075000003
v -0.024519632 -0.004877258 -0.075000003
v -0.024519632 -0.004877258 0.075000003
v -0.025000000 0.000000000 -0.075000003
v -0.025000000 0.000000000 0.075000003
v -0.024519632 0.004877258 -0.075000003
v -0.024519632 0.004877258 0.075000003
v -0.023096988 0.009567087 -0.075000003
v -0.023096988 0.009567087 0.075000003
v -0.020786740 0.013889256 -0.075000003
v -0.020786740 0.013889256 0.075000003
v -0.017677670 0.017677670 -0.075000003
v -0.017677670 0.017677670 0.075000003
v -0.013889256 0.020786740 -0.075000003
v -0.013889256 0.020786740 0.075000003
v -0.009567087 0.023096988 -0.075000003
v -0.009567087 0.023096988 0.075000003
v -0.004877258 0.024519632 -0.075000003
v -0.004877258 0.024519632 0.075000003
usemtl default_material
vn 0.098017290 0.995184720 0.000000000
vn 0.098017290 0.995184720 0.000000000
vn 0.098017290 0.995184720 0.000000000
f 1//1 2//2 4//3
vn 0.098017290 0.995184720 0.000000000
vn 0.098017290 0.995184720 0.000000000
vn 0.098017290 0.995184720 0.000000000
f 1//4 4//5 3//6
vn 0.290284634 0.956940353 0.000000000
vn 0.290284634 0.956940353 0.000000000
vn 0.290284634 0.956940353 0.000000000
f 3//7 4//8 6//9
vn 0.290284634 0.956940353 0.000000000
vn 0.290284634 0.956940353 0.000000000
vn 0.290284634 0.956940353 0.000000000
f 3//10 6//11 5//12
vn 0.471396744 0.881921291 0.000000000
vn 0.471396744 0.881921291 0.000000000
vn 0.471396744 0.881921291 0.000000000
f 5//13 6//14 8//15
vn 0.471396744 0.881921291 0.000000000
vn 0.471396744 0.881921291 0.000000000
vn 0.471396744 0.881921291 0.000000000
f 5//16 8//17 7//18
vn 0.634393394 0.773010433 0.000000000
vn 0.634393394 0.773010433 0.000000000
vn 0.634393394 0.773010433 0.000000000
f 7//19 8//20 10//21
vn 0.634393394 0.773010433 0.000000000
vn 0.634393394 0.773010433 0.000000000
vn 0.634393394 0.773010433 0.000000000
f 7//22 10//23 9//24
vn 0.773010433 0.634393394 0.000000000
vn 0.773010433 0.634393394 0.000000000
vn 0.773010433 0.634393394 0.000000000
f 9//25 10//26 12//27
vn 0.773010433 0.634393394 0.000000000
vn 0.773010433 0.634393394 0.000000000
vn 0.773010433 0.634393394 0.000000000
f 9//28 12//29 11//30
vn 0.881921291 0.471396744 0.000000000
vn 0.881921291 0.471396744 0.000000000
vn 0.881921291 0.471396744 0.000000000
f 11//31 12//32 14//33
vn 0.881921291 0.471396744 0.000000000
vn 0.881921291 0.471396744 0.000000000
vn 0.881921291 0.471396744 0.000000000
f 11//34 14//35 13//36
vn 0.956940353 0.290284634 0.000000000
vn 0.956940353 0.290284634 0.000000000
vn 0.956940353 0.290284634 0.000000000
f 13//37 14//38 16//39
vn 0.956940353 0.290284634 0.000000000
vn 0.956940353 0.290284634 0.000000000
vn 0.956940353 0.290284634 0.000000000
f 13//40 16//41 15//42
vn 0.995184720 0.098017290 0.000000000
vn 0.995184720 0.098017290 0.000000000
vn 0.995184720 0.098017290 0.000000000
f 15//43 16//44 18//45
vn 0.995184720 0.098017290 0.000000000
vn 0.995184720 0.098017290 0.000000000
vn 0.995184720 0.098017290 0.000000000
f 15//46 18//47 17//48
vn 0.995184720 -0.098017290 0.000000000
vn 0.995184720 -0.098017290 0.000000000
vn 0.995184720 -0.098017290 0.000000000
f 17//49 18//50 20//51
vn 0.995184720 -0.098017290 0.000000000
vn 0.995184720 -0.098017290 0.000000000
vn 0.995184720 -0.098017290 0.000000000
f 17//52 20//53 19//54
vn 0.956940353 -0.290284634 0.000000000
vn 0.956940353 -0.290284634 0.000000000
vn 0.956940353 -0.290284634 0.000000000
f 19//55 20//56 22//57
vn 0.956940353 -0.290284634 0.000000000
vn 0.956940353 -0.290284634 0.000000000
vn 0.956940353 -0.290284634 0.000000000
f 19//58 22//59 21//60
vn 0.881921291 -0.471396744 0.000000000
vn 0.881921291 -0.471396744 0.000000000
vn 0.881921291 -0.471396744 0.000000000
f 21//61 22//62 24//63
vn 0.881921291 -0.471396744 0.000000000
vn 0.881921291 -0.471396744 0.000000000
vn 0.881921291 -0.471396744 0.000000000
f 21//64 24//65 23//66
vn 0.773010433 -0.634393394 0.000000000
vn 0.773010433 -0.634393394 0.000000000
vn 0.773010433 -0.634393394 0.000000000
f 23//67 24//68 26//69
vn 0.773010433 -0.634393394 0.000000000
vn 0.773010433 -0.634393394 0.000000000
vn 0.773010433 -0.634393394 0.000000000
f 23//70 26//71 25//72
vn 0.634393394 -0.773010433 0.000000000
vn 0.634393394 -0.773010433 0.000000000
vn 0.634393394 -0.773010433 0.000000000
f 25//73 26//74 28//75
vn 0.634393394 -0.773010433 0.000000000
vn 0.634393394 -0.773010433 0.000000000
vn 0.634393394 -0.773010433 0.000000000
f 25//76 28//77 27//78
vn 0.471396744 -0.881921291 0.000000000
vn 0.471396744 -0.881921291 0.000000000
vn 0.471396744 -0.881921291 0.000000000
f 27//79 28//80 30//81
vn 0.471396744 -0.881921291 0.000000000
vn 0.471396744 -0.881921291 0.000000000
vn 0.471396744 -0.881921291 0.000000000
f 27//82 30//83 29//84
vn 0.290284634 -0.956940353 0.000000000
vn 0.290284634 -0.956940353 0.000000000
vn 0.290284634 -0.956940353 0.000000000
f 29//85 30//86 32//87
vn 0.290284634 -0.956940353 0.000000000
vn 0.290284634 -0.956940353 0.000000000
vn 0.290284634 -0.956940353 0.000000000
f 29//88 32//89 31//90
vn 0.098017290 -0.995184720 0.000000000
vn 0.098017290 -0.995184720 0.000000000
vn 0.098017290 -0.995184720 0.000000000
f 31//91 32//92 34//93
vn 0.098017290 -0.995184720 0.000000000
vn 0.098017290 -0.995184720 0.000000000
vn 0.098017290 -0.995184720 0.000000000
f 31//94 34//95 33//96
vn -0.098017290 -0.995184720 0.000000000
vn -0.098017290 -0.995184720 0.000000000
vn -0.098017290 -0.995184720 0.000000000
f 33//97 34//98 36//99
vn -0.098017290 -0.995184720 0.000000000
vn -0.098017290 -0.995184720 0.000000000
vn -0.098017290 -0.995184720 0.000000000
f 33//100 36//101 35//102
vn -0.290284634 -0.956940353 0.000000000
vn -0.290284634 -0.956940353 0.000000000
vn -0.290284634 -0.956940353 0.000000000
f 35//103 36//104 38//105
vn -0.290284634 -0.956940353 0.000000000
vn -0.290284634 -0.956940353 0.000000000
vn -0.290284634 -0.956940353 0.000000000
f 35//106 38//107 37//108
vn -0.471396744 -0.881921291 0.000000000
vn -0.471396744 -0.881921291 0.000000000
vn -0.471396744 -0.881921291 0.000000000
f 37//109 38//110 40//111
vn -0.471396744 -0.881921291 0.000000000
vn -0.471396744 -0.881921291 0.000000000
vn -0.471396744 -0.881921291 0.000000000
f 37//112 40//113 39//114
vn -0.634393394 -0.773010433 0.000000000
vn -0.634393394 -0.773010433 0.000000000
vn -0.634393394 -0.773010433 0.000000000
f 39//115 40//116 42//117
vn -0.634393394 -0.773010433 0.000000000
vn -0.634393394 -0.773010433 0.000000000
vn -0.634393394 -0.773010433 0.000000000
f 39//118 42//119 41//120
vn -0.773010433 -0.634393394 0.000000000
vn -0.773010433 -0.634393394 0.000000000
vn -0.773010433 -0.634393394 0.000000000
f 41//121 42//122 44//123
vn -0.773010433 -0.634393394 0.000000000
vn -0.773010433 -0.634393394 0.000000000
vn -0.773010433 -0.634393394 0.000000000
f 41//124 44//125 43//126
vn -0.881921291 -0.471396744 0.000000000
vn -0.881921291 -0.471396744 0.000000000
vn -0.881921291 -0.471396744 0.000000000
f 43//127 44//128 46//129
vn -0.881921291 -0.471396744 0.000000000
vn -0.881921291 -0.471396744 0.000000000
vn -0.881921291 -0.471396744 0.000000000
f 43//130 46//131 45//132
vn -0.956940353 -0.290284634 0.000000000
vn -0.956940353 -0.290284634 0.000000000
vn -0.956940353 -0.290284634 0.000000000
f 45//133 46//134 48//135
vn -0.956940353 -0.290284634 0.000000000
vn -0.956940353 -0.290284634 0.000000000
vn -0.956940353 -0.290284634 0.000000000
f 45//136 48//137 47//138
vn -0.995184720 -0.098017290 0.000000000
vn -0.995184720 -0.098017290 0.000000000
vn -0.995184720 -0.098017290 0.000000000
f 47//139 48//140 50//141
vn -0.995184720 -0.098017290 0.000000000
vn -0.995184720 -0.098017290 0.000000000
vn -0.995184720 -0.098017290 0.000000000
f 47//142 50//143 49//144
vn -0.995184720 0.098017290 0.000000000
vn -0.995184720 0.098017290 0.000000000
vn -0.995184720 0.098017290 0.000000000
f 49//145 50//146 52//147
vn -0.995184720 0.098017290 0.000000000
vn -0.995184720 0.098017290 0.000000000
vn -0.995184720 0.098017290 0.000000000
f 49//148 52//149 51//150
vn -0.956940353 0.290284634 0.000000000
vn -0.956940353 0.290284634 0.000000000
vn -0.956940353 0.290284634 0.000000000
f 51//151 52//152 54//153
vn -0.956940353 0.290284634 0.000000000
vn -0.956940353 0.290284634 0.000000000
vn -0.956940353 0.290284634 0.000000000
f 51//154 54//155 53//156
vn -0.881921291 0.471396744 0.000000000
vn -0.881921291 0.471396744 0.000000000
vn -0.881921291 0.471396744 0.000000000
f 53//157 54//158 56//159
vn -0.881921291 0.471396744 0.000000000
vn -0.881921291 0.471396744 0.000000000
vn -0.881921291 0.471396744 0.000000000
f 53//160 56//161 55//162
vn -0.773010433 0.634393394 0.000000000
vn -0.773010433 0.634393394 0.000000000
vn -0.773010433 0.634393394 0.000000000
f 55//163 56//164 58//165
vn -0.773010433 0.634393394 0.000000000
vn -0.773010433 0.634393394 0.000000000
vn -0.773010433 0.634393394 0.000000000
f 55//166 58//167 57//168
vn -0.634393394 0.773010433 0.000000000
vn -0.634393394 0.773010433 0.000000000
vn -0.634393394 0.773010433 0.000000000
f 57//169 58//170 60//171
vn -0.634393394 0.773010433 0.000000000
vn -0.634393394 0.773010433 0.000000000
vn -0.634393394 0.773010433 0.000000000
f 57//172 60//173 59//174
vn -0.471396744 0.881921291 0.000000000
vn -0.471396744 0.881921291 0.000000000
vn -0.471396744 0.881921291 0.000000000
f 59//175 60//176 62//177
vn -0.471396744 0.881921291 0.000000000
vn -0.471396744 0.881921291 0.000000000
vn -0.471396744 0.881921291 0.000000000
f 59//178 62//179 61//180
vn 0.000000057 0.000000000 1.000000000
vn 0.000000057 0.000000000 1.000000000
vn 0.000000057 0.000000000 1.000000000
f 6//181 4//182 2//183
vn 0.000000057 0.000000000 1.000000000
vn 0.000000057 0.000000000 1.000000000
vn 0.000000057 0.000000000 1.000000000
f 2//184 64//185 62//186
vn 0.000000057 0.000000000 1.000000000
vn 0.000000057 0.000000000 1.000000000
vn 0.000000057 0.000000000 1.000000000
f 62//187 60//188 58//189
vn 0.000000057 0.000000000 1.000000000
vn 0.000000057 0.000000000 1.000000000
vn 0.000000057 0.000000000 1.000000000
f 58//190 56//191 54//192
vn 0.000000057 0.000000000 1.000000000
vn 0.000000057 0.000000000 1.000000000
vn 0.000000057 0.000000000 1.000000000
f 54//193 52//194 50//195
vn 0.000000057 0.000000000 1.000000000
vn 0.000000057 0.000000000 1.000000000
vn 0.000000057 0.000000000 1.000000000
f 50//196 48//197 46//198
vn 0.000000057 0.000000000 1.000000000
vn 0.000000057 0.000000000 1.000000000
vn 0.000000057 0.000000000 1.000000000
f 46//199 44//200 42//201
vn 0.000000057 0.000000000 1.000000000
vn 0.000000057 0.000000000 1.000000000
vn 0.000000057 0.000000000 1.000000000
f 42//202 40//203 38//204
vn 0.000000057 0.000000000 1.000000000
vn 0.000000057 0.000000000 1.000000000
vn 0.000000057 0.000000000 1.000000000
f 38//205 36//206 34//207
vn 0.000000057 0.000000000 1.000000000
vn 0.000000057 0.000000000 1.000000000
vn 0.000000057 0.000000000 1.000000000
f 34//208 32//209 30//210
vn 0.000000057 0.000000000 1.000000000
vn 0.000000057 0.000000000 1.000000000
vn 0.000000057 0.000000000 1.000000000
f 30//211 28//212 26//213
vn 0.000000057 0.000000000 1.000000000
vn 0.000000057 0.000000000 1.000000000
vn 0.000000057 0.000000000 1.000000000
f 26//214 24//215 22//216
vn 0.000000057 0.000000000 1.000000000
vn 0.000000057 0.000000000 1.000000000
vn 0.000000057 0.000000000 1.000000000
f 22//217 20//218 18//219
vn 0.000000057 0.000000000 1.000000000
vn 0.000000057 0.000000000 1.000000000
vn 0.000000057 0.000000000 1.000000000
f 18//220 16//221 14//222
vn 0.000000057 0.000000000 1.000000000
vn 0.000000057 0.000000000 1.000000000
vn 0.000000057 0.000000000 1.000000000
f 14//223 12//224 10//225
vn 0.000000057 0.000000000 1.000000000
vn 0.000000057 0.000000000 1.000000000
vn 0.000000057 0.000000000 1.000000000
f 10//226 8//227 6//228
vn 0.000000057 0.000000000 1.000000000
vn 0.000000057 0.000000000 1.000000000
vn 0.000000057 0.000000000 1.000000000
f 6//229 2//230 62//231
vn 0.000000057 0.000000000 1.000000000
vn 0.000000057 0.000000000 1.000000000
vn 0.000000057 0.000000000 1.000000000
f 62//232 58//233 54//234
vn 0.000000057 0.000000000 1.000000000
vn 0.000000057 0.000000000 1.000000000
vn 0.000000057 0.000000000 1.000000000
f 54//235 50//236 46//237
vn 0.000000057 0.000000000 1.000000000
vn 0.000000057 0.000000000 1.000000000
vn 0.000000057 0.000000000 1.000000000
f 46//238 42//239 38//240
vn 0.000000057 0.000000000 1.000000000
vn 0.000000057 0.000000000 1.000000000
vn 0.000000057 0.000000000 1.000000000
f 38//241 34//242 30//243
vn 0.000000057 0.000000000 1.000000000
vn 0.000000057 0.000000000 1.000000000
vn 0.000000057 0.000000000 1.000000000
f 30//244 26//245 22//246
vn 0.000000057 0.000000000 1.000000000
vn 0.000000057 0.000000000 1.000000000
vn 0.000000057 0.000000000 1.000000000
f 22//247 18//248 14//249
vn 0.000000057 0.000000000 1.000000000
vn 0.000000057 0.000000000 1.000000000
vn 0.000000057 0.000000000 1.000000000
f 14//250 10//251 6//252
vn 0.000000057 0.000000000 1.000000000
vn 0.000000057 0.000000000 1.000000000
vn 0.000000057 0.000000000 1.000000000
f 6//253 62//254 54//255
vn 0.000000057 0.000000000 1.000000000
vn 0.000000057 0.000000000 1.000000000
vn 0.000000057 0.000000000 1.000000000
f 54//256 46//257 38//258
vn 0.000000057 0.000000000 1.000000000
vn 0.000000057 0.000000000 1.000000000
vn 0.000000057 0.000000000 1.000000000
f 38//259 30//260 22//261
vn 0.000000057 0.000000000 1.000000000
vn 0.000000057 0.000000000 1.000000000
vn 0.000000057 0.000000000 1.000000000
f 22//262 14//263 6//264
vn 0.000000057 0.000000000 1.000000000
vn 0.000000057 0.000000000 1.000000000
vn 0.000000057 0.000000000 1.000000000
f 6//265 54//266 38//267
vn 0.000000057 0.000000000 1.000000000
vn 0.000000057 0.000000000 1.000000000
vn 0.000000057 0.000000000 1.000000000
f 38//268 22//269 6//270
vn -0.290284634 0.956940353 0.000000000
vn -0.290284634 0.956940353 0.000000000
vn -0.290284634 0.956940353 0.000000000
f 61//271 62//272 64//273
vn -0.290284634 0.956940353 0.000000000
vn -0.290284634 0.956940353 0.000000000
vn -0.290284634 0.956940353 0.000000000
f 61//274 64//275 63//276
vn -0.098017290 0.995184720 0.000000000
vn -0.098017290 0.995184720 0.000000000
vn -0.098017290 0.995184720 0.000000000
f 63//277 64//278 2//279
vn -0.098017290 0.995184720 0.000000000
vn -0.098017290 0.995184720 0.000000000
vn -0.098017290 0.995184720 0.000000000
f 63//280 2//281 1//282
vn -0.000000057 0.000000000 -1.000000000
vn -0.000000057 0.000000000 -1.000000000
vn -0.000000057 0.000000000 -1.000000000
f 63//283 1//284 3//285
vn -0.000000057 0.000000000 -1.000000000
vn -0.000000057 0.000000000 -1.000000000
vn -0.000000057 0.000000000 -1.000000000
f 3//286 5//287 7//288
vn -0.000000057 0.000000000 -1.000000000
vn -0.000000057 0.000000000 -1.000000000
vn -0.000000057 0.000000000 -1.000000000
f 7//289 9//290 11//291
vn -0.000000057 0.000000000 -1.000000000
vn -0.000000057 0.000000000 -1.000000000
vn -0.000000057 0.000000000 -1.000000000
f 11//292 13//293 15//294
vn -0.000000057 0.000000000 -1.000000000
vn -0.000000057 0.000000000 -1.000000000
vn -0.000000057 0.000000000 -1.000000000
f 15//295 17//296 19//297
vn -0.000000057 0.000000000 -1.000000000
vn -0.000000057 0.000000000 -1.000000000
vn -0.000000057 0.000000000 -1.000000000
f 19//298 21//299 23//300
vn -0.000000057 0.000000000 -1.000000000
vn -0.000000057 0.000000000 -1.000000000
vn -0.000000057 0.000000000 -1.000000000
f 23//301 25//302 27//303
vn -0.000000057 0.000000000 -1.000000000
vn -0.000000057 0.000000000 -1.000000000
vn -0.000000057 0.000000000 -1.000000000
f 27//304 29//305 31//306
vn -0.000000057 0.000000000 -1.000000000
vn -0.000000057 0.000000000 -1.000000000
vn -0.000000057 0.000000000 -1.000000000
f 31//307 33//308 35//309
vn -0.000000057 0.000000000 -1.000000000
vn -0.000000057 0.000000000 -1.000000000
vn -0.000000057 0.000000000 -1.000000000
f 35//310 37//311 39//312
vn -0.000000057 0.000000000 -1.000000000
vn -0.000000057 0.000000000 -1.000000000
vn -0.000000057 0.000000000 -1.000000000
f 39//313 41//314 43//315
vn -0.000000057 0.000000000 -1.000000000
vn -0.000000057 0.000000000 -1.000000000
vn -0.000000057 0.000000000 -1.000000000
f 43//316 45//317 47//318
vn -0.000000057 0.000000000 -1.000000000
vn -0.000000057 0.000000000 -1.000000000
vn -0.000000057 0.000000000 -1.000000000
f 47//319 49//320 51//321
vn -0.000000057 0.000000000 -1.000000000
vn -0.000000057 0.000000000 -1.000000000
vn -0.000000057 0.000000000 -1.000000000
f 51//322 53//323 55//324
vn -0.000000057 0.000000000 -1.000000000
vn -0.000000057 0.000000000 -1.000000000
vn -0.000000057 0.000000000 -1.000000000
f 55//325 57//326 59//327
vn -0.000000057 0.000000000 -1.000000000
vn -0.000000057 0.000000000 -1.000000000
vn -0.000000057 0.000000000 -1.000000000
f 59//328 61//329 63//330
vn -0.000000057 0.000000000 -1.000000000
vn -0.000000057 0.000000000 -1.000000000
vn -0.000000057 0.000000000 -1.000000000
f 63//331 3//332 7//333
vn -0.000000057 0.000000000 -1.000000000
vn -0.000000057 0.000000000 -1.000000000
vn -0.000000057 0.000000000 -1.000000000
f 7//334 11//335 15//336
vn -0.000000057 0.000000000 -1.000000000
vn -0.000000057 0.000000000 -1.000000000
vn -0.000000057 0.000000000 -1.000000000
f 15//337 19//338 23//339
vn -0.000000057 0.000000000 -1.000000000
vn -0.000000057 0.000000000 -1.000000000
vn -0.000000057 0.000000000 -1.000000000
f 23//340 27//341 31//342
vn -0.000000057 0.000000000 -1.000000000
vn -0.000000057 0.000000000 -1.000000000
vn -0.000000057 0.000000000 -1.000000000
f 31//343 35//344 39//345
vn -0.000000057 0.000000000 -1.000000000
vn -0.000000057 0.000000000 -1.000000000
vn -0.000000057 0.000000000 -1.000000000
f 39//346 43//347 47//348
vn -0.000000057 0.000000000 -1.000000000
vn -0.000000057 0.000000000 -1.000000000
vn -0.000000057 0.000000000 -1.000000000
f 47//349 51//350 55//351
vn -0.000000057 0.000000000 -1.000000000
vn -0.000000057 0.000000000 -1.000000000
vn -0.000000057 0.000000000 -1.000000000
f 55//352 59//353 63//354
vn -0.000000057 0.000000000 -1.000000000
vn -0.000000057 0.000000000 -1.000000000
vn -0.000000057 0.000000000 -1.000000000
f 63//355 7//356 15//357
vn -0.000000057 0.000000000 -1.000000000
vn -0.000000057 0.000000000 -1.000000000
vn -0.000000057 0.000000000 -1.000000000
f 15//358 23//359 31//360
vn -0.000000057 0.000000000 -1.000000000
vn -0.000000057 0.000000000 -1.000000000
vn -0.000000057 0.000000000 -1.000000000
f 31//361 39//362 47//363
vn -0.000000057 0.000000000 -1.000000000
vn -0.000000057 0.000000000 -1.000000000
vn -0.000000057 0.000000000 -1.000000000
f 47//364 55//365 63//366
vn -0.000000057 0.000000000 -1.000000000
vn -0.000000057 0.000000000 -1.000000000
vn -0.000000057 0.000000000 -1.000000000
f 63//367 15//368 31//369
vn -0.000000057 0.000000000 -1.000000000
vn -0.000000057 0.000000000 -1.000000000
vn -0.000000057 0.000000000 -1.000000000
f 31//370 47//371 63//372

o kachup_cap
v 0.000000000 0.017500000 0.074291997
v 0.000000000 0.017500000 0.089291997
v 0.003414081 0.017163742 0.074291997
v 0.003414081 0.017163742 0.089291997
v 0.006696960 0.016167892 0.074291997
v 0.006696960 0.016167892 0.089291997
v 0.009722480 0.014550718 0.074291997
v 0.009722480 0.014550718 0.089291997
v 0.012374368 0.012374368 0.074291997
v 0.012374368 0.012374368 0.089291997
v 0.014550718 0.009722480 0.074291997
v 0.014550718 0.009722480 0.089291997
v 0.016167892 0.006696960 0.074291997
v 0.016167892 0.006696960 0.089291997
v 0.017163742 0.003414081 0.074291997
v 0.017163742 0.003414081 0.089291997
v 0.017500000 0.000000000 0.074291997
v 0.017500000 0.000000000 0.089291997
v 0.017163742 -0.003414081 0.074291997
v 0.017163742 -0.003414081 0.089291997
v 0.016167892 -0.006696960 0.074291997
v 0.016167892 -0.006696960 0.089291997
v 0.014550718 -0.009722480 0.074291997
v 0.014550718 -0.009722480 0.089291997
v 0.012374368 -0.012374368 0.074291997
v 0.012374368 -0.012374368 0.089291997
v 0.009722480 -0.014550718 0.074291997
v 0.009722480 -0.014550718 0.089291997
v 0.006696960 -0.016167892 0.074291997
v 0.006696960 -0.016167892 0.089291997
v 0.003414081 -0.017163742 0.074291997
v 0.003414081 -0.017163742 0.089291997
v 0.000000000 -0.017500000 0.074291997
v 0.000000000 -0.017500000 0.089291997
v -0.003414081 -0.017163742 0.074291997
v -0.003414081 -0.017163742 0.089291997
v -0.006696960 -0.016167892 0.074291997
v -0.006696960 -0.016167892 0.089291997
v -0.009722480 -0.014550718 0.074291997
v -0.009722480 -0.014550718 0.089291997
v -0.012374368 -0.012374368 0.074291997
v -0.012374368 -0.012374368 0.089291997
v -0.014550718 -0.009722480 0.074291997
v -0.014550718 -0.009722480 0.089291997
v -0.016167892 -0.006696960 0.074291997
v -0.016167892 -0.006696960 0.089291997
v -0.017163742 -0.003414081 0.074291997
v -0.017163742 -0.003414081 0.089291997
v -0.017500000 0.000000000 0.074291997
v -0.017500000 0.000000000 0.089291997
v -0.017163742 0.003414081 0.074291997
v -0.017163742 0.003414081 0.089291997
v -0.016167892 0.006696960 0.074291997
v -0.016167892 0.006696960 0.089291997
v -0.014550718 0.009722480 0.074291997
v -0.014550718 0.009722480 0.089291997
v -0.012374368 0.012374368 0.074291997
v -0.012374368 0.012374368 0.089291997
v -0.009722480 0.014550718 0.074291997
v -0.009722480 0.014550718 0.089291997
v -0.006696960 0.016167892 0.074291997
v -0.006696960 0.016167892 0.089291997
v -0.003414081 0.017163742 0.074291997
v -0.003414081 0.017163742 0.089291997
usemtl default_material
vn 0.098017290 0.995184720 0.000000000
vn 0.098017290 0.995184720 0.000000000
vn 0.098017290 0.995184720 0.000000000
f 65//373 66//374 68//375
vn 0.098017290 0.995184720 0.000000000
vn 0.098017290 0.995184720 0.000000000
vn 0.098017290 0.995184720 0.000000000
f 65//376 68//377 67//378
vn 0.290284604 0.956940353 0.000000000
vn 0.290284604 0.956940353 0.000000000
vn 0.290284604 0.956940353 0.000000000
f 67//379 68//380 70//381
vn 0.290284604 0.956940353 0.000000000
vn 0.290284604 0.956940353 0.000000000
vn 0.290284604 0.956940353 0.000000000
f 67//382 70//383 69//384
vn 0.471396714 0.881921232 0.000000000
vn 0.471396714 0.881921232 0.000000000
vn 0.471396714 0.881921232 0.000000000
f 69//385 70//386 72//387
vn 0.471396714 0.881921232 0.000000000
vn 0.471396714 0.881921232 0.000000000
vn 0.471396714 0.881921232 0.000000000
f 69//388 72//389 71//390
vn 0.634393334 0.773010373 0.000000000
vn 0.634393334 0.773010373 0.000000000
vn 0.634393334 0.773010373 0.000000000
f 71//391 72//392 74//393
vn 0.634393334 0.773010373 0.000000000
vn 0.634393334 0.773010373 0.000000000
vn 0.634393334 0.773010373 0.000000000
f 71//394 74//395 73//396
vn 0.773010373 0.634393334 0.000000000
vn 0.773010373 0.634393334 0.000000000
vn 0.773010373 0.634393334 0.000000000
f 73//397 74//398 76//399
vn 0.773010373 0.634393334 0.000000000
vn 0.773010373 0.634393334 0.000000000
vn 0.773010373 0.634393334 0.000000000
f 73//400 76//401 75//402
vn 0.881921232 0.471396714 0.000000000
vn 0.881921232 0.471396714 0.000000000
vn 0.881921232 0.471396714 0.000000000
f 75//403 76//404 78//405
vn 0.881921232 0.471396714 0.000000000
vn 0.881921232 0.471396714 0.000000000
vn 0.881921232 0.471396714 0.000000000
f 75//406 78//407 77//408
vn 0.956940353 0.290284604 0.000000000
vn 0.956940353 0.290284604 0.000000000
vn 0.956940353 0.290284604 0.000000000
f 77//409 78//410 80//411
vn 0.956940353 0.290284604 0.000000000
vn 0.956940353 0.290284604 0.000000000
vn 0.956940353 0.290284604 0.000000000
f 77//412 80//413 79//414
vn 0.995184720 0.098017290 0.000000000
vn 0.995184720 0.098017290 0.000000000
vn 0.995184720 0.098017290 0.000000000
f 79//415 80//416 82//417
vn 0.995184720 0.098017290 0.000000000
vn 0.995184720 0.098017290 0.000000000
vn 0.995184720 0.098017290 0.000000000
f 79//418 82//419 81//420
vn 0.995184720 -0.098017290 0.000000000
vn 0.995184720 -0.098017290 0.000000000
vn 0.995184720 -0.098017290 0.000000000
f 81//421 82//422 84//423
vn 0.995184720 -0.098017290 0.000000000
vn 0.995184720 -0.098017290 0.000000000
vn 0.995184720 -0.098017290 0.000000000
f 81//424 84//425 83//426
vn 0.956940353 -0.290284604 0.000000000
vn 0.956940353 -0.290284604 0.000000000
vn 0.956940353 -0.290284604 0.000000000
f 83//427 84//428 86//429
vn 0.956940353 -0.290284604 0.000000000
vn 0.956940353 -0.290284604 0.000000000
vn 0.956940353 -0.290284604 0.000000000
f 83//430 86//431 85//432
vn 0.881921232 -0.471396714 0.000000000
vn 0.881921232 -0.471396714 0.000000000
vn 0.881921232 -0.471396714 0.000000000
f 85//433 86//434 88//435
vn 0.881921232 -0.471396714 0.000000000
vn 0.881921232 -0.471396714 0.000000000
vn 0.881921232 -0.471396714 0.000000000
f 85//436 88//437 87//438
vn 0.773010373 -0.634393334 0.000000000
vn 0.773010373 -0.634393334 0.000000000
vn 0.773010373 -0.634393334 0.000000000
f 87//439 88//440 90//441
vn 0.773010373 -0.634393334 0.000000000
vn 0.773010373 -0.634393334 0.000000000
vn 0.773010373 -0.634393334 0.000000000
f 87//442 90//443 89//444
vn 0.634393334 -0.773010373 0.000000000
vn 0.634393334 -0.773010373 0.000000000
vn 0.634393334 -0.773010373 0.000000000
f 89//445 90//446 92//447
vn 0.634393334 -0.773010373 0.000000000
vn 0.634393334 -0.773010373 0.000000000
vn 0.634393334 -0.773010373 0.000000000
f 89//448 92//449 91//450
vn 0.471396714 -0.881921232 0.000000000
vn 0.471396714 -0.881921232 0.000000000
vn 0.471396714 -0.881921232 0.000000000
f 91//451 92//452 94//453
vn 0.471396714 -0.881921232 0.000000000
vn 0.471396714 -0.881921232 0.000000000
vn 0.471396714 -0.881921232 0.000000000
f 91//454 94//455 93//456
vn 0.290284604 -0.956940353 0.000000000
vn 0.290284604 -0.956940353 0.000000000
vn 0.290284604 -0.956940353 0.000000000
f 93//457 94//458 96//459
vn 0.290284604 -0.956940353 0.000000000
vn 0.290284604 -0.956940353 0.000000000
vn 0.290284604 -0.956940353 0.000000000
f 93//460 96//461 95//462
vn 0.098017290 -0.995184720 0.000000000
vn 0.098017290 -0.995184720 0.000000000
vn 0.098017290 -0.995184720 0.000000000
f 95//463 96//464 98//465
vn 0.098017290 -0.995184720 0.000000000
vn 0.098017290 -0.995184720 0.000000000
vn 0.098017290 -0.995184720 0.000000000
f 95//466 98//467 97//468
vn -0.098017290 -0.995184720 0.000000000
vn -0.098017290 -0.995184720 0.000000000
vn -0.098017290 -0.995184720 0.000000000
f 97//469 98//470 100//471
vn -0.098017290 -0.995184720 0.000000000
vn -0.098017290 -0.995184720 0.000000000
vn -0.098017290 -0.995184720 0.000000000
f 97//472 100//473 99//474
vn -0.290284604 -0.956940353 0.000000000
vn -0.290284604 -0.956940353 0.000000000
vn -0.290284604 -0.956940353 0.000000000
f 99//475 100//476 102//477
vn -0.290284604 -0.956940353 0.000000000
vn -0.290284604 -0.956940353 0.000000000
vn -0.290284604 -0.956940353 0.000000000
f 99//478 102//479 101//480
vn -0.471396714 -0.881921232 0.000000000
vn -0.471396714 -0.881921232 0.000000000
vn -0.471396714 -0.881921232 0.000000000
f 101//481 102//482 104//483
vn -0.471396714 -0.881921232 0.000000000
vn -0.471396714 -0.881921232 0.000000000
vn -0.471396714 -0.881921232 0.000000000
f 101//484 104//485 103//486
vn -0.634393334 -0.773010373 0.000000000
vn -0.634393334 -0.773010373 0.000000000
vn -0.634393334 -0.773010373 0.000000000
f 103//487 104//488 106//489
vn -0.634393334 -0.773010373 0.000000000
vn -0.634393334 -0.773010373 0.000000000
vn -0.634393334 -0.773010373 0.000000000
f 103//490 106//491 105//492
vn -0.773010373 -0.634393334 0.000000000
vn -0.773010373 -0.634393334 0.000000000
vn -0.773010373 -0.634393334 0.000000000
f 105//493 106//494 108//495
vn -0.773010373 -0.634393334 0.000000000
vn -0.773010373 -0.634393334 0.000000000
vn -0.773010373 -0.634393334 0.000000000
f 105//496 108//497 107//498
vn -0.881921232 -0.471396714 0.000000000
vn -0.881921232 -0.471396714 0.000000000
vn -0.881921232 -0.471396714 0.000000000
f 107//499 108//500 110//501
vn -0.881921232 -0.471396714 0.000000000
vn -0.881921232 -0.471396714 0.000000000
vn -0.881921232 -0.471396714 0.000000000
f 107//502 110//503 109//504
vn -0.956940353 -0.290284604 0.000000000
vn -0.956940353 -0.290284604 0.000000000
vn -0.956940353 -0.290284604 0.000000000
f 109//505 110//506 112//507
vn -0.956940353 -0.290284604 0.000000000
vn -0.956940353 -0.290284604 0.000000000
vn -0.956940353 -0.290284604 0.000000000
f 109//508 112//509 111//510
vn -0.995184720 -0.098017290 0.000000000
vn -0.995184720 -0.098017290 0.000000000
vn -0.995184720 -0.098017290 0.000000000
f 111//511 112//512 114//513
vn -0.995184720 -0.098017290 0.000000000
vn -0.995184720 -0.098017290 0.000000000
vn -0.995184720 -0.098017290 0.000000000
f 111//514 114//515 113//516
vn -0.995184720 0.098017290 0.000000000
vn -0.995184720 0.098017290 0.000000000
vn -0.995184720 0.098017290 0.000000000
f 113//517 114//518 116//519
vn -0.995184720 0.098017290 0.000000000
vn -0.995184720 0.098017290 0.000000000
vn -0.995184720 0.098017290 0.000000000
f 113//520 116//521 115//522
vn -0.956940353 0.290284604 0.000000000
vn -0.956940353 0.290284604 0.000000000
vn -0.956940353 0.290284604 0.000000000
f 115//523 116//524 118//525
vn -0.956940353 0.290284604 0.000000000
vn -0.956940353 0.290284604 0.000000000
vn -0.956940353 0.290284604 0.000000000
f 115//526 118//527 117//528
vn -0.881921232 0.471396714 0.000000000
vn -0.881921232 0.471396714 0.000000000
vn -0.881921232 0.471396714 0.000000000
f 117//529 118//530 120//531
vn -0.881921232 0.471396714 0.000000000
vn -0.881921232 0.471396714 0.000000000
vn -0.881921232 0.471396714 0.000000000
f 117//532 120//533 119//534
vn -0.773010373 0.634393334 0.000000000
vn -0.773010373 0.634393334 0.000000000
vn -0.773010373 0.634393334 0.000000000
f 119//535 120//536 122//537
vn -0.773010373 0.634393334 0.000000000
vn -0.773010373 0.634393334 0.000000000
vn -0.773010373 0.634393334 0.000000000
f 119//538 122//539 121//540
vn -0.634393334 0.773010373 0.000000000
vn -0.634393334 0.773010373 0.000000000
vn -0.634393334 0.773010373 0.000000000
f 121//541 122//542 124//543
vn -0.634393334 0.773010373 0.000000000
vn -0.634393334 0.773010373 0.000000000
vn -0.634393334 0.773010373 0.000000000
f 121//544 124//545 123//546
vn -0.471396714 0.881921232 0.000000000
vn -0.471396714 0.881921232 0.000000000
vn -0.471396714 0.881921232 0.000000000
f 123//547 124//548 126//549
vn -0.471396714 0.881921232 0.000000000
vn -0.471396714 0.881921232 0.000000000
vn -0.471396714 0.881921232 0.000000000
f 123//550 126//551 125//552
vn 0.000000008 0.000000000 1.000000000
vn 0.000000008 0.000000000 1.000000000
vn 0.000000008 0.000000000 1.000000000
f 70//553 68//554 66//555
vn 0.000000008 0.000000000 1.000000000
vn 0.000000008 0.000000000 1.000000000
vn 0.000000008 0.000000000 1.000000000
f 66//556 128//557 126//558
vn 0.000000008 0.000000000 1.000000000
vn 0.000000008 0.000000000 1.000000000
vn 0.000000008 0.000000000 1.000000000
f 126//559 124//560 122//561
vn 0.000000008 0.000000000 1.000000000
vn 0.000000008 0.000000000 1.000000000
vn 0.000000008 0.000000000 1.000000000
f 122//562 120//563 118//564
vn 0.000000008 0.000000000 1.000000000
vn 0.000000008 0.000000000 1.000000000
vn 0.000000008 0.000000000 1.000000000
f 118//565 116//566 114//567
vn 0.000000008 0.000000000 1.000000000
vn 0.000000008 0.000000000 1.000000000
vn 0.000000008 0.000000000 1.000000000
f 114//568 112//569 110//570
vn 0.000000008 0.000000000 1.000000000
vn 0.000000008 0.000000000 1.000000000
vn 0.000000008 0.000000000 1.000000000
f 110//571 108//572 106//573
vn 0.000000008 0.000000000 1.000000000
vn 0.000000008 0.000000000 1.000000000
vn 0.000000008 0.000000000 1.000000000
f 106//574 104//575 102//576
vn 0.000000008 0.000000000 1.000000000
vn 0.000000008 0.000000000 1.000000000
vn 0.000000008 0.000000000 1.000000000
f 102//577 100//578 98//579
vn 0.000000008 0.000000000 1.000000000
vn 0.000000008 0.000000000 1.000000000
vn 0.000000008 0.000000000 1.000000000
f 98//580 96//581 94//582
vn 0.000000008 0.000000000 1.000000000
vn 0.000000008 0.000000000 1.000000000
vn 0.000000008 0.000000000 1.000000000
f 94//583 92//584 90//585
vn 0.000000008 0.000000000 1.000000000
vn 0.000000008 0.000000000 1.000000000
vn 0.000000008 0.000000000 1.000000000
f 90//586 88//587 86//588
vn 0.000000008 0.000000000 1.000000000
vn 0.000000008 0.000000000 1.000000000
vn 0.000000008 0.000000000 1.000000000
f 86//589 84//590 82//591
vn 0.000000008 0.000000000 1.000000000
vn 0.000000008 0.000000000 1.000000000
vn 0.000000008 0.000000000 1.000000000
f 82//592 80//593 78//594
vn 0.000000008 0.000000000 1.000000000
vn 0.000000008 0.000000000 1.000000000
vn 0.000000008 0.000000000 1.000000000
f 78//595 76//596 74//597
vn 0.000000008 0.000000000 1.000000000
vn 0.000000008 0.000000000 1.000000000
vn 0.000000008 0.000000000 1.000000000
f 74//598 72//599 70//600
vn 0.000000008 0.000000000 1.000000000
vn 0.000000008 0.000000000 1.000000000
vn 0.000000008 0.000000000 1.000000000
f 70//601 66//602 126//603
vn 0.000000008 0.000000000 1.000000000
vn 0.000000008 0.000000000 1.000000000
vn 0.000000008 0.000000000 1.000000000
f 126//604 122//605 118//606
vn 0.000000008 0.000000000 1.000000000
vn 0.000000008 0.000000000 1.000000000
vn 0.000000008 0.000000000 1.000000000
f 118//607 114//608 110//609
vn 0.000000008 0.000000000 1.000000000
vn 0.000000008 0.000000000 1.000000000
vn 0.000000008 0.000000000 1.000000000
f 110//610 106//611 102//612
vn 0.000000008 0.000000000 1.000000000
vn 0.000000008 0.000000000 1.000000000
vn 0.000000008 0.000000000 1.000000000
f 102//613 98//614 94//615
vn 0.000000008 0.000000000 1.000000000
vn 0.000000008 0.000000000 1.000000000
vn 0.000000008 0.000000000 1.000000000
f 94//616 90//617 86//618
vn 0.000000008 0.000000000 1.000000000
vn 0.000000008 0.000000000 1.000000000
vn 0.000000008 0.000000000 1.000000000
f 86//619 82//620 78//621
vn 0.000000008 0.000000000 1.000000000
vn 0.000000008 0.000000000 1.000000000
vn 0.000000008 0.000000000 1.000000000
f 78//622 74//623 70//624
vn 0.000000008 0.000000000 1.000000000
vn 0.000000008 0.000000000 1.000000000
vn 0.000000008 0.000000000 1.000000000
f 70//625 126//626 118//627
vn 0.000000008 0.000000000 1.000000000
vn 0.000000008 0.000000000 1.000000000
vn 0.000000008 0.000000000 1.000000000
f 118//628 110//629 102//630
vn 0.000000008 0.000000000 1.000000000
vn 0.000000008 0.000000000 1.000000000
vn 0.000000008 0.000000000 1.000000000
f 102//631 94//632 86//633
vn 0.000000008 0.000000000 1.000000000
vn 0.000000008 0.000000000 1.000000000
vn 0.000000008 0.000000000 1.000000000
f 86//634 78//635 70//636
vn 0.000000008 0.000000000 1.000000000
vn 0.000000008 0.000000000 1.000000000
vn 0.000000008 0.000000000 1.000000000
f 70//637 118//638 102//639
vn 0.000000008 0.000000000 1.000000000
vn 0.000000008 0.000000000 1.000000000
vn 0.000000008 0.000000000 1.000000000
f 102//640 86//641 70//642
vn -0.290284604 0.956940353 0.000000000
vn -0.290284604 0.956940353 0.000000000
vn -0.290284604 0.956940353 0.000000000
f 125//643 126//644 128//645
vn -0.290284604 0.956940353 0.000000000
vn -0.290284604 0.956940353 0.000000000
vn -0.290284604 0.956940353 0.000000000
f 125//646 128//647 127//648
vn -0.098017290 0.995184720 0.000000000
vn -0.098017290 0.995184720 0.000000000
vn -0.098017290 0.995184720 0.000000000
f 127//649 128//650 66//651
vn -0.098017290 0.995184720 0.000000000
vn -0.098017290 0.995184720 0.000000000
vn -0.098017290 0.995184720 0.000000000
f 127//652 66//653 65//654
vn -0.000000008 0.000000000 -1.000000000
vn -0.000000008 0.000000000 -1.000000000
vn -0.000000008 0.000000000 -1.000000000
f 127//655 65//656 67//657
vn -0.000000008 0.000000000 -1.000000000
vn -0.000000008 0.000000000 -1.000000000
vn -0.000000008 0.000000000 -1.000000000
f 67//658 69//659 71//660
vn -0.000000008 0.000000000 -1.000000000
vn -0.000000008 0.000000000 -1.000000000
vn -0.000000008 0.000000000 -1.000000000
f 71//661 73//662 75//663
vn -0.000000008 0.000000000 -1.000000000
vn -0.000000008 0.000000000 -1.000000000
vn -0.000000008 0.000000000 -1.000000000
f 75//664 77//665 79//666
vn -0.000000008 0.000000000 -1.000000000
vn -0.000000008 0.000000000 -1.000000000
vn -0.000000008 0.000000000 -1.000000000
f 79//667 81//668 83//669
vn -0.000000008 0.000000000 -1.000000000
vn -0.000000008 0.000000000 -1.000000000
vn -0.000000008 0.000000000 -1.000000000
f 83//670 85//671 87//672
vn -0.000000008 0.000000000 -1.000000000
vn -0.000000008 0.000000000 -1.000000000
vn -0.000000008 0.000000000 -1.000000000
f 87//673 89//674 91//675
vn -0.000000008 0.000000000 -1.000000000
vn -0.000000008 0.000000000 -1.000000000
vn -0.000000008 0.000000000 -1.000000000
f 91//676 93//677 95//678
vn -0.000000008 0.000000000 -1.000000000
vn -0.000000008 0.000000000 -1.000000000
vn -0.000000008 0.000000000 -1.000000000
f 95//679 97//680 99//681
vn -0.000000008 0.000000000 -1.000000000
vn -0.000000008 0.000000000 -1.000000000
vn -0.000000008 0.000000000 -1.000000000
f 99//682 101//683 103//684
vn -0.000000008 0.000000000 -1.000000000
vn -0.000000008 0.000000000 -1.000000000
vn -0.000000008 0.000000000 -1.000000000
f 103//685 105//686 107//687
vn -0.000000008 0.000000000 -1.000000000
vn -0.000000008 0.000000000 -1.000000000
vn -0.000000008 0.000000000 -1.000000000
f 107//688 109//689 111//690
vn -0.000000008 0.000000000 -1.000000000
vn -0.000000008 0.000000000 -1.000000000
vn -0.000000008 0.000000000 -1.000000000
f 111//691 113//692 115//693
vn -0.000000008 0.000000000 -1.000000000
vn -0.000000008 0.000000000 -1.000000000
vn -0.000000008 0.000000000 -1.000000000
f 115//694 117//695 119//696
vn -0.000000008 0.000000000 -1.000000000
vn -0.000000008 0.000000000 -1.000000000
vn -0.000000008 0.000000000 -1.000000000
f 119//697 121//698 123//699
vn -0.000000008 0.000000000 -1.000000000
vn -0.000000008 0.000000000 -1.000000000
vn -0.000000008 0.000000000 -1.000000000
f 123//700 125//701 127//702
vn -0.000000008 0.000000000 -1.000000000
vn -0.000000008 0.000000000 -1.000000000
vn -0.000000008 0.000000000 -1.000000000
f 127//703 67//704 71//705
vn -0.000000008 0.000000000 -1.000000000
vn -0.000000008 0.000000000 -1.000000000
vn -0.000000008 0.000000000 -1.000000000
f 71//706 75//707 79//708
vn -0.000000008 0.000000000 -1.000000000
vn -0.000000008 0.000000000 -1.000000000
vn -0.000000008 0.000000000 -1.000000000
f 79//709 83//710 87//711
vn -0.000000008 0.000000000 -1.000000000
vn -0.000000008 0.000000000 -1.000000000
vn -0.000000008 0.000000000 -1.000000000
f 87//712 91//713 95//714
vn -0.000000008 0.000000000 -1.000000000
vn -0.000000008 0.000000000 -1.000000000
vn -0.000000008 0.000000000 -1.000000000
f 95//715 99//716 103//717
vn -0.000000008 0.000000000 -1.000000000
vn -0.000000008 0.000000000 -1.000000000
vn -0.000000008 0.000000000 -1.000000000
f 103//718 107//719 111//720
vn -0.000000008 0.000000000 -1.000000000
vn -0.000000008 0.000000000 -1.000000000
vn -0.000000008 0.000000000 -1.000000000
f 111//721 115//722 119//723
vn -0.000000008 0.000000000 -1.000000000
vn -0.000000008 0.000000000 -1.000000000
vn -0.000000008 0.000000000 -1.000000000
f 119//724 123//725 127//726
vn -0.000000008 0.000000000 -1.000000000
vn -0.000000008 0.000000000 -1.000000000
vn -0.000000008 0.000000000 -1.000000000
f 127//727 71//728 79//729
vn -0.000000008 0.000000000 -1.000000000
vn -0.000000008 0.000000000 -1.000000000
vn -0.000000008 0.000000000 -1.000000000
f 79//730 87//731 95//732
vn -0.000000008 0.000000000 -1.000000000
vn -0.000000008 0.000000000 -1.000000000
vn -0.000000008 0.000000000 -1.000000000
f 95//733 103//734 111//735
vn -0.000000008 0.000000000 -1.000000000
vn -0.000000008 0.000000000 -1.000000000
vn -0.000000008 0.000000000 -1.000000000
f 111//736 119//737 127//738
vn -0.000000008 0.000000000 -1.000000000
vn -0.000000008 0.000000000 -1.000000000
vn -0.000000008 0.000000000 -1.000000000
f 127//739 79//740 95//741
vn -0.000000008 0.000000000 -1.000000000
vn -0.000000008 0.000000000 -1.000000000
vn -0.000000008 0.000000000 -1.000000000
f 95//742 111//743 127//744

o kachup_nozzle
v 0.000000000 0.002500000 0.089126036
v 0.000000000 0.002500000 0.124126032
v 0.000487726 0.002451963 0.089126036
v 0.000487726 0.002451963 0.124126032
v 0.000956709 0.002309699 0.089126036
v 0.000956709 0.002309699 0.124126032
v 0.001388926 0.002078674 0.089126036
v 0.001388926 0.002078674 0.124126032
v 0.001767767 0.001767767 0.089126036
v 0.001767767 0.001767767 0.124126032
v 0.002078674 0.001388926 0.089126036
v 0.002078674 0.001388926 0.124126032
v 0.002309699 0.000956709 0.089126036
v 0.002309699 0.000956709 0.124126032
v 0.002451963 0.000487726 0.089126036
v 0.002451963 0.000487726 0.124126032
v 0.002500000 0.000000000 0.089126036
v 0.002500000 0.000000000 0.124126032
v 0.002451963 -0.000487726 0.089126036
v 0.002451963 -0.000487726 0.124126032
v 0.002309699 -0.000956709 0.089126036
v 0.002309699 -0.000956709 0.124126032
v 0.002078674 -0.001388926 0.089126036
v 0.002078674 -0.001388926 0.124126032
v 0.001767767 -0.001767767 0.089126036
v 0.001767767 -0.001767767 0.124126032
v 0.001388926 -0.002078674 0.089126036
v 0.001388926 -0.002078674 0.124126032
v 0.000956709 -0.002309699 0.089126036
v 0.000956709 -0.002309699 0.124126032
v 0.000487726 -0.002451963 0.089126036
v 0.000487726 -0.002451963 0.124126032
v 0.000000000 -0.002500000 0.089126036
v 0.000000000 -0.002500000 0.124126032
v -0.000487726 -0.002451963 0.089126036
v -0.000487726 -0.002451963 0.124126032
v -0.000956709 -0.002309699 0.089126036
v -0.000956709 -0.002309699 0.124126032
v -0.001388926 -0.002078674 0.089126036
v -0.001388926 -0.002078674 0.124126032
v -0.001767767 -0.001767767 0.089126036
v -0.001767767 -0.001767767 0.124126032
v -0.002078674 -0.001388926 0.089126036
v -0.002078674 -0.001388926 0.124126032
v -0.002309699 -0.000956709 0.089126036
v -0.002309699 -0.000956709 0.124126032
v -0.002451963 -0.000487726 0.089126036
v -0.002451963 -0.000487726 0.124126032
v -0.002500000 0.000000000 0.089126036
v -0.002500000 0.000000000 0.124126032
v -0.002451963 0.000487726 0.089126036
v -0.002451963 0.000487726 0.124126032
v -0.002309699 0.000956709 0.089126036
v -0.002309699 0.000956709 0.124126032
v -0.002078674 0.001388926 0.089126036
v -0.002078674 0.001388926 0.124126032
v -0.001767767 0.001767767 0.089126036
v -0.001767767 0.001767767 0.124126032
v -0.001388926 0.002078674 0.089126036
v -0.001388926 0.002078674 0.124126032
v -0.000956709 0.002309699 0.089126036
v -0.000956709 0.002309699 0.124126032
v -0.000487726 0.002451963 0.089126036
v -0.000487726 0.002451963 0.124126032
usemtl default_material
vn 0.098017290 0.995184660 0.000000000
vn 0.098017290 0.995184660 0.000000000
vn 0.098017290 0.995184660 0.000000000
f 129//745 130//746 132//747
vn 0.098017290 0.995184660 0.000000000
vn 0.098017290 0.995184660 0.000000000
vn 0.098017290 0.995184660 0.000000000
f 129//748 132//749 131//750
vn 0.290284634 0.956940353 0.000000000
vn 0.290284634 0.956940353 0.000000000
vn 0.290284634 0.956940353 0.000000000
f 131//751 132//752 134//753
vn 0.290284634 0.956940353 0.000000000
vn 0.290284634 0.956940353 0.000000000
vn 0.290284634 0.956940353 0.000000000
f 131//754 134//755 133//756
vn 0.471396714 0.881921291 0.000000000
vn 0.471396714 0.881921291 0.000000000
vn 0.471396714 0.881921291 0.000000000
f 133//757 134//758 136//759
vn 0.471396714 0.881921291 0.000000000
vn 0.471396714 0.881921291 0.000000000
vn 0.471396714 0.881921291 0.000000000
f 133//760 136//761 135//762
vn 0.634393334 0.773010373 0.000000000
vn 0.634393334 0.773010373 0.000000000
vn 0.634393334 0.773010373 0.000000000
f 135//763 136//764 138//765
vn 0.634393334 0.773010373 0.000000000
vn 0.634393334 0.773010373 0.000000000
vn 0.634393334 0.773010373 0.000000000
f 135//766 138//767 137//768
vn 0.773010373 0.634393334 0.000000000
vn 0.773010373 0.634393334 0.000000000
vn 0.773010373 0.634393334 0.000000000
f 137//769 138//770 140//771
vn 0.773010373 0.634393334 0.000000000
vn 0.773010373 0.634393334 0.000000000
vn 0.773010373 0.634393334 0.000000000
f 137//772 140//773 139//774
vn 0.881921291 0.471396714 0.000000000
vn 0.881921291 0.471396714 0.000000000
vn 0.881921291 0.471396714 0.000000000
f 139//775 140//776 142//777
vn 0.881921291 0.471396714 0.000000000
vn 0.881921291 0.471396714 0.000000000
vn 0.881921291 0.471396714 0.000000000
f 139//778 142//779 141//780
vn 0.956940353 0.290284634 0.000000000
vn 0.956940353 0.290284634 0.000000000
vn 0.956940353 0.290284634 0.000000000
f 141//781 142//782 144//783
vn 0.956940353 0.290284634 0.000000000
vn 0.956940353 0.290284634 0.000000000
vn 0.956940353 0.290284634 0.000000000
f 141//784 144//785 143//786
vn 0.995184660 0.098017290 0.000000000
vn 0.995184660 0.098017290 0.000000000
vn 0.995184660 0.098017290 0.000000000
f 143//787 144//788 146//789
vn 0.995184660 0.098017290 0.000000000
vn 0.995184660 0.098017290 0.000000000
vn 0.995184660 0.098017290 0.000000000
f 143//790 146//791 145//792
vn 0.995184660 -0.098017290 0.000000000
vn 0.995184660 -0.098017290 0.000000000
vn 0.995184660 -0.098017290 0.000000000
f 145//793 146//794 148//795
vn 0.995184660 -0.098017290 0.000000000
vn 0.995184660 -0.098017290 0.000000000
vn 0.995184660 -0.098017290 0.000000000
f 145//796 148//797 147//798
vn 0.956940353 -0.290284634 0.000000000
vn 0.956940353 -0.290284634 0.000000000
vn 0.956940353 -0.290284634 0.000000000
f 147//799 148//800 150//801
vn 0.956940353 -0.290284634 0.000000000
vn 0.956940353 -0.290284634 0.000000000
vn 0.956940353 -0.290284634 0.000000000
f 147//802 150//803 149//804
vn 0.881921291 -0.471396714 0.000000000
vn 0.881921291 -0.471396714 0.000000000
vn 0.881921291 -0.471396714 0.000000000
f 149//805 150//806 152//807
vn 0.881921291 -0.471396714 0.000000000
vn 0.881921291 -0.471396714 0.000000000
vn 0.881921291 -0.471396714 0.000000000
f 149//808 152//809 151//810
vn 0.773010373 -0.634393334 0.000000000
vn 0.773010373 -0.634393334 0.000000000
vn 0.773010373 -0.634393334 0.000000000
f 151//811 152//812 154//813
vn 0.773010373 -0.634393334 0.000000000
vn 0.773010373 -0.634393334 0.000000000
vn 0.773010373 -0.634393334 0.000000000
f 151//814 154//815 153//816
vn 0.634393334 -0.773010373 0.000000000
vn 0.634393334 -0.773010373 0.000000000
vn 0.634393334 -0.773010373 0.000000000
f 153//817 154//818 156//819
vn 0.634393334 -0.773010373 0.000000000
vn 0.634393334 -0.773010373 0.000000000
vn 0.634393334 -0.773010373 0.000000000
f 153//820 156//821 155//822
vn 0.471396714 -0.881921291 0.000000000
vn 0.471396714 -0.881921291 0.000000000
vn 0.471396714 -0.881921291 0.000000000
f 155//823 156//824 158//825
vn 0.471396714 -0.881921291 0.000000000
vn 0.471396714 -0.881921291 0.000000000
vn 0.471396714 -0.881921291 0.000000000
f 155//826 158//827 157//828
vn 0.290284634 -0.956940353 0.000000000
vn 0.290284634 -0.956940353 0.000000000
vn 0.290284634 -0.956940353 0.000000000
f 157//829 158//830 160//831
vn 0.290284634 -0.956940353 0.000000000
vn 0.290284634 -0.956940353 0.000000000
vn 0.290284634 -0.956940353 0.000000000
f 157//832 160//833 159//834
vn 0.098017290 -0.995184660 0.000000000
vn 0.098017290 -0.995184660 0.000000000
vn 0.098017290 -0.995184660 0.000000000
f 159//835 160//836 162//837
vn 0.098017290 -0.995184660 0.000000000
vn 0.098017290 -0.995184660 0.000000000
vn 0.098017290 -0.995184660 0.000000000
f 159//838 162//839 161//840
vn -0.098017290 -0.995184660 0.000000000
vn -0.098017290 -0.995184660 0.000000000
vn -0.098017290 -0.995184660 0.000000000
f 161//841 162//842 164//843
vn -0.098017290 -0.995184660 0.000000000
vn -0.098017290 -0.995184660 0.000000000
vn -0.098017290 -0.995184660 0.000000000
f 161//844 164//845 163//846
vn -0.290284634 -0.956940353 0.000000000
vn -0.290284634 -0.956940353 0.000000000
vn -0.290284634 -0.956940353 0.000000000
f 163//847 164//848 166//849
vn -0.290284634 -0.956940353 0.000000000
vn -0.290284634 -0.956940353 0.000000000
vn -0.290284634 -0.956940353 0.000000000
f 163//850 166//851 165//852
vn -0.471396714 -0.881921291 0.000000000
vn -0.471396714 -0.881921291 0.000000000
vn -0.471396714 -0.881921291 0.000000000
f 165//853 166//854 168//855
vn -0.471396714 -0.881921291 0.000000000
vn -0.471396714 -0.881921291 0.000000000
vn -0.471396714 -0.881921291 0.000000000
f 165//856 168//857 167//858
vn -0.634393334 -0.773010373 0.000000000
vn -0.634393334 -0.773010373 0.000000000
vn -0.634393334 -0.773010373 0.000000000
f 167//859 168//860 170//861
vn -0.634393334 -0.773010373 0.000000000
vn -0.634393334 -0.773010373 0.000000000
vn -0.634393334 -0.773010373 0.000000000
f 167//862 170//863 169//864
vn -0.773010373 -0.634393334 0.000000000
vn -0.773010373 -0.634393334 0.000000000
vn -0.773010373 -0.634393334 0.000000000
f 169//865 170//866 172//867
vn -0.773010373 -0.634393334 0.000000000
vn -0.773010373 -0.634393334 0.000000000
vn -0.773010373 -0.634393334 0.000000000
f 169//868 172//869 171//870
vn -0.881921291 -0.471396714 0.000000000
vn -0.881921291 -0.471396714 0.000000000
vn -0.881921291 -0.471396714 0.000000000
f 171//871 172//872 174//873
vn -0.881921291 -0.471396714 0.000000000
vn -0.881921291 -0.471396714 0.000000000
vn -0.881921291 -0.471396714 0.000000000
f 171//874 174//875 173//876
vn -0.956940353 -0.290284634 0.000000000
vn -0.956940353 -0.290284634 0.000000000
vn -0.956940353 -0.290284634 0.000000000
f 173//877 174//878 176//879
vn -0.956940353 -0.290284634 0.000000000
vn -0.956940353 -0.290284634 0.000000000
vn -0.956940353 -0.290284634 0.000000000
f 173//880 176//881 175//882
vn -0.995184660 -0.098017290 0.000000000
vn -0.995184660 -0.098017290 0.000000000
vn -0.995184660 -0.098017290 0.000000000
f 175//883 176//884 178//885
vn -0.995184660 -0.098017290 0.000000000
vn -0.995184660 -0.098017290 0.000000000
vn -0.995184660 -0.098017290 0.000000000
f 175//886 178//887 177//888
vn -0.995184660 0.098017290 0.000000000
vn -0.995184660 0.098017290 0.000000000
vn -0.995184660 0.098017290 0.000000000
f 177//889 178//890 180//891
vn -0.995184660 0.098017290 0.000000000
vn -0.995184660 0.098017290 0.000000000
vn -0.995184660 0.098017290 0.000000000
f 177//892 180//893 179//894
vn -0.956940353 0.290284634 0.000000000
vn -0.956940353 0.290284634 0.000000000
vn -0.956940353 0.290284634 0.000000000
f 179//895 180//896 182//897
vn -0.956940353 0.290284634 0.000000000
vn -0.956940353 0.290284634 0.000000000
vn -0.956940353 0.290284634 0.000000000
f 179//898 182//899 181//900
vn -0.881921291 0.471396714 0.000000000
vn -0.881921291 0.471396714 0.000000000
vn -0.881921291 0.471396714 0.000000000
f 181//901 182//902 184//903
vn -0.881921291 0.471396714 0.000000000
vn -0.881921291 0.471396714 0.000000000
vn -0.881921291 0.471396714 0.000000000
f 181//904 184//905 183//906
vn -0.773010373 0.634393334 0.000000000
vn -0.773010373 0.634393334 0.000000000
vn -0.773010373 0.634393334 0.000000000
f 183//907 184//908 186//909
vn -0.773010373 0.634393334 0.000000000
vn -0.773010373 0.634393334 0.000000000
vn -0.773010373 0.634393334 0.000000000
f 183//910 186//911 185//912
vn -0.634393334 0.773010373 0.000000000
vn -0.634393334 0.773010373 0.000000000
vn -0.634393334 0.773010373 0.000000000
f 185//913 186//914 188//915
vn -0.634393334 0.773010373 0.000000000
vn -0.634393334 0.773010373 0.000000000
vn -0.634393334 0.773010373 0.000000000
f 185//916 188//917 187//918
vn -0.471396714 0.881921291 0.000000000
vn -0.471396714 0.881921291 0.000000000
vn -0.471396714 0.881921291 0.000000000
f 187//919 188//920 190//921
vn -0.471396714 0.881921291 0.000000000
vn -0.471396714 0.881921291 0.000000000
vn -0.471396714 0.881921291 0.000000000
f 187//922 190//923 189//924
vn 0.000000134 0.000000000 1.000000000
vn 0.000000134 0.000000000 1.000000000
vn 0.000000134 0.000000000 1.000000000
f 134//925 132//926 130//927
vn 0.000000134 0.000000000 1.000000000
vn 0.000000134 0.000000000 1.000000000
vn 0.000000134 0.000000000 1.000000000
f 130//928 192//929 190//930
vn 0.000000134 0.000000000 1.000000000
vn 0.000000134 0.000000000 1.000000000
vn 0.000000134 0.000000000 1.000000000
f 190//931 188//932 186//933
vn 0.000000134 0.000000000 1.000000000
vn 0.000000134 0.000000000 1.000000000
vn 0.000000134 0.000000000 1.000000000
f 186//934 184//935 182//936
vn 0.000000134 0.000000000 1.000000000
vn 0.000000134 0.000000000 1.000000000
vn 0.000000134 0.000000000 1.000000000
f 182//937 180//938 178//939
vn 0.000000134 0.000000000 1.000000000
vn 0.000000134 0.000000000 1.000000000
vn 0.000000134 0.000000000 1.000000000
f 178//940 176//941 174//942
vn 0.000000134 0.000000000 1.000000000
vn 0.000000134 0.000000000 1.000000000
vn 0.000000134 0.000000000 1.000000000
f 174//943 172//944 170//945
vn 0.000000134 0.000000000 1.000000000
vn 0.000000134 0.000000000 1.000000000
vn 0.000000134 0.000000000 1.000000000
f 170//946 168//947 166//948
vn 0.000000134 0.000000000 1.000000000
vn 0.000000134 0.000000000 1.000000000
vn 0.000000134 0.000000000 1.000000000
f 166//949 164//950 162//951
vn 0.000000134 0.000000000 1.000000000
vn 0.000000134 0.000000000 1.000000000
vn 0.000000134 0.000000000 1.000000000
f 162//952 160//953 158//954
vn 0.000000134 0.000000000 1.000000000
vn 0.000000134 0.000000000 1.000000000
vn 0.000000134 0.000000000 1.000000000
f 158//955 156//956 154//957
vn 0.000000134 0.000000000 1.000000000
vn 0.000000134 0.000000000 1.000000000
vn 0.000000134 0.000000000 1.000000000
f 154//958 152//959 150//960
vn 0.000000134 0.000000000 1.000000000
vn 0.000000134 0.000000000 1.000000000
vn 0.000000134 0.000000000 1.000000000
f 150//961 148//962 146//963
vn 0.000000134 0.000000000 1.000000000
vn 0.000000134 0.000000000 1.000000000
vn 0.000000134 0.000000000 1.000000000
f 146//964 144//965 142//966
vn 0.000000134 0.000000000 1.000000000
vn 0.000000134 0.000000000 1.000000000
vn 0.000000134 0.000000000 1.000000000
f 142//967 140//968 138//969
vn 0.000000134 0.000000000 1.000000000
vn 0.000000134 0.000000000 1.000000000
vn 0.000000134 0.000000000 1.000000000
f 138//970 136//971 134//972
vn 0.000000134 0.000000000 1.000000000
vn 0.000000134 0.000000000 1.000000000
vn 0.000000134 0.000000000 1.000000000
f 134//973 130//974 190//975
vn 0.000000134 0.000000000 1.000000000
vn 0.000000134 0.000000000 1.000000000
vn 0.000000134 0.000000000 1.000000000
f 190//976 186//977 182//978
vn 0.000000134 0.000000000 1.000000000
vn 0.000000134 0.000000000 1.000000000
vn 0.000000134 0.000000000 1.000000000
f 182//979 178//980 174//981
vn 0.000000134 0.000000000 1.000000000
vn 0.000000134 0.000000000 1.000000000
vn 0.000000134 0.000000000 1.000000000
f 174//982 170//983 166//984
vn 0.000000134 0.000000000 1.000000000
vn 0.000000134 0.000000000 1.000000000
vn 0.000000134 0.000000000 1.000000000
f 166//985 162//986 158//987
vn 0.000000134 0.000000000 1.000000000
vn 0.000000134 0.000000000 1.000000000
vn 0.000000134 0.000000000 1.000000000
f 158//988 154//989 150//990
vn 0.000000134 0.000000000 1.000000000
vn 0.000000134 0.000000000 1.000000000
vn 0.000000134 0.000000000 1.000000000
f 150//991 146//992 142//993
vn 0.000000134 0.000000000 1.000000000
vn 0.000000134 0.000000000 1.000000000
vn 0.000000134 0.000000000 1.000000000
f 142//994 138//995 134//996
vn 0.000000134 0.000000000 1.000000000
vn 0.000000134 0.000000000 1.000000000
vn 0.000000134 0.000000000 1.000000000
f 134//997 190//998 182//999
vn 0.000000134 0.000000000 1.000000000
vn 0.000000134 0.000000000 1.000000000
vn 0.000000134 0.000000000 1.000000000
f 182//1000 174//1001 166//1002
vn 0.000000134 0.000000000 1.000000000
vn 0.000000134 0.000000000 1.000000000
vn 0.000000134 0.000000000 1.000000000
f 166//1003 158//1004 150//1005
vn 0.000000134 0.000000000 1.000000000
vn 0.000000134 0.000000000 1.000000000
vn 0.000000134 0.000000000 1.000000000
f 150//1006 142//1007 134//1008
vn 0.000000134 0.000000000 1.000000000
vn 0.000000134 0.000000000 1.000000000
vn 0.000000134 0.000000000 1.000000000
f 134//1009 182//1010 166//1011
vn 0.000000134 0.000000000 1.000000000
vn 0.000000134 0.000000000 1.000000000
vn 0.000000134 0.000000000 1.000000000
f 166//1012 150//1013 134//1014
vn -0.290284634 0.956940353 0.000000000
vn -0.290284634 0.956940353 0.000000000
vn -0.290284634 0.956940353 0.000000000
f 189//1015 190//1016 192//1017
vn -0.290284634 0.956940353 0.000000000
vn -0.290284634 0.956940353 0.000000000
vn -0.290284634 0.956940353 0.000000000
f 189//1018 192//1019 191//1020
vn -0.098017290 0.995184660 0.000000000
vn -0.098017290 0.995184660 0.000000000
vn -0.098017290 0.995184660 0.000000000
f 191//1021 192//1022 130//1023
vn -0.098017290 0.995184660 0.000000000
vn -0.098017290 0.995184660 0.000000000
vn -0.098017290 0.995184660 0.000000000
f 191//1024 130//1025 129//1026
vn -0.000000134 0.000000000 -0.999999940
vn -0.000000134 0.000000000 -0.999999940
vn -0.000000134 0.000000000 -0.999999940
f 191//1027 129//1028 131//1029
vn -0.000000134 0.000000000 -0.999999940
vn -0.000000134 0.000000000 -0.999999940
vn -0.000000134 0.000000000 -0.999999940
f 131//1030 133//1031 135//1032
vn -0.000000134 0.000000000 -0.999999940
vn -0.000000134 0.000000000 -0.999999940
vn -0.000000134 0.000000000 -0.999999940
f 135//1033 137//1034 139//1035
vn -0.000000134 0.000000000 -0.999999940
vn -0.000000134 0.000000000 -0.999999940
vn -0.000000134 0.000000000 -0.999999940
f 139//1036 141//1037 143//1038
vn -0.000000134 0.000000000 -0.999999940
vn -0.000000134 0.000000000 -0.999999940
vn -0.000000134 0.000000000 -0.999999940
f 143//1039 145//1040 147//1041
vn -0.000000134 0.000000000 -0.999999940
vn -0.000000134 0.000000000 -0.999999940
vn -0.000000134 0.000000000 -0.999999940
f 147//1042 149//1043 151//1044
vn -0.000000134 0.000000000 -0.999999940
vn -0.000000134 0.000000000 -0.999999940
vn -0.000000134 0.000000000 -0.999999940
f 151//1045 153//1046 155//1047
vn -0.000000134 0.000000000 -0.999999940
vn -0.000000134 0.000000000 -0.999999940
vn -0.000000134 0.000000000 -0.999999940
f 155//1048 157//1049 159//1050
vn -0.000000134 0.000000000 -0.999999940
vn -0.000000134 0.000000000 -0.999999940
vn -0.000000134 0.000000000 -0.999999940
f 159//1051 161//1052 163//1053
vn -0.000000134 0.000000000 -0.999999940
vn -0.000000134 0.000000000 -0.999999940
vn -0.000000134 0.000000000 -0.999999940
f 163//1054 165//1055 167//1056
vn -0.000000134 0.000000000 -0.999999940
vn -0.000000134 0.000000000 -0.999999940
vn -0.000000134 0.000000000 -0.999999940
f 167//1057 169//1058 171//1059
vn -0.000000134 0.000000000 -0.999999940
vn -0.000000134 0.000000000 -0.999999940
vn -0.000000134 0.000000000 -0.999999940
f 171//1060 173//1061 175//1062
vn -0.000000134 0.000000000 -0.999999940
vn -0.000000134 0.000000000 -0.999999940
vn -0.000000134 0.000000000 -0.999999940
f 175//1063 177//1064 179//1065
vn -0.000000134 0.000000000 -0.999999940
vn -0.000000134 0.000000000 -0.999999940
vn -0.000000134 0.000000000 -0.999999940
f 179//1066 181//1067 183//1068
vn -0.000000134 0.000000000 -0.999999940
vn -0.000000134 0.000000000 -0.999999940
vn -0.000000134 0.000000000 -0.999999940
f 183//1069 185//1070 187//1071
vn -0.000000134 0.000000000 -0.999999940
vn -0.000000134 0.000000000 -0.999999940
vn -0.000000134 0.000000000 -0.999999940
f 187//1072 189//1073 191//1074
vn -0.000000134 0.000000000 -0.999999940
vn -0.000000134 0.000000000 -0.999999940
vn -0.000000134 0.000000000 -0.999999940
f 191//1075 131//1076 135//1077
vn -0.000000134 0.000000000 -0.999999940
vn -0.000000134 0.000000000 -0.999999940
vn -0.000000134 0.000000000 -0.999999940
f 135//1078 139//1079 143//1080
vn -0.000000134 0.000000000 -0.999999940
vn -0.000000134 0.000000000 -0.999999940
vn -0.000000134 0.000000000 -0.999999940
f 143//1081 147//1082 151//1083
vn -0.000000134 0.000000000 -0.999999940
vn -0.000000134 0.000000000 -0.999999940
vn -0.000000134 0.000000000 -0.999999940
f 151//1084 155//1085 159//1086
vn -0.000000134 0.000000000 -0.999999940
vn -0.000000134 0.000000000 -0.999999940
vn -0.000000134 0.000000000 -0.999999940
f 159//1087 163//1088 167//1089
vn -0.000000134 0.000000000 -0.999999940
vn -0.000000134 0.000000000 -0.999999940
vn -0.000000134 0.000000000 -0.999999940
f 167//1090 171//1091 175//1092
vn -0.000000134 0.000000000 -0.999999940
vn -0.000000134 0.000000000 -0.999999940
vn -0.000000134 0.000000000 -0.999999940
f 175//1093 179//1094 183//1095
vn -0.000000134 0.000000000 -0.999999940
vn -0.000000134 0.000000000 -0.999999940
vn -0.000000134 0.000000000 -0.999999940
f 183//1096 187//1097 191//1098
vn -0.000000134 0.000000000 -0.999999940
vn -0.000000134 0.000000000 -0.999999940
vn -0.000000134 0.000000000 -0.999999940
f 191//1099 135//1100 143//1101
vn -0.000000134 0.000000000 -0.999999940
vn -0.000000134 0.000000000 -0.999999940
vn -0.000000134 0.000000000 -0.999999940
f 143//1102 151//1103 159//1104
vn -0.000000134 0.000000000 -0.999999940
vn -0.000000134 0.000000000 -0.999999940
vn -0.000000134 0.000000000 -0.999999940
f 159//1105 167//1106 175//1107
vn -0.000000134 0.000000000 -0.999999940
vn -0.000000134 0.000000000 -0.999999940
vn -0.000000134 0.000000000 -0.999999940
f 175//1108 183//1109 191//1110
vn -0.000000134 0.000000000 -0.999999940
vn -0.000000134 0.000000000 -0.999999940
vn -0.000000134 0.000000000 -0.999999940
f 191//1111 143//1112 159//1113
vn -0.000000134 0.000000000 -0.999999940
vn -0.000000134 0.000000000 -0.999999940
vn -0.000000134 0.000000000 -0.999999940
f 159//1114 175//1115 191//1116
