# Exported manufacturing runtime mesh
mtllib bread1.mtl

o bread1_bottom
v 0.059999991 0.012500009 -0.015399996
v 0.059999991 0.012500009 -0.005399998
v 0.059999999 -0.012499990 -0.015399996
v 0.059999999 -0.012499990 -0.005399998
v -0.059999999 0.012499990 -0.015399996
v -0.059999999 0.012499990 -0.005399998
v -0.059999991 -0.012500009 -0.015399996
v -0.059999991 -0.012500009 -0.005399998
usemtl default_material
vn 1.000000000 0.000000151 0.000000000
vn 1.000000000 0.000000151 0.000000000
vn 1.000000000 0.000000151 0.000000000
f 1//1 2//2 4//3
vn 1.000000000 0.000000151 0.000000000
vn 1.000000000 0.000000151 0.000000000
vn 1.000000000 0.000000151 0.000000000
f 1//4 4//5 3//6
vn 0.000000151 -1.000000000 0.000000000
vn 0.000000151 -1.000000000 0.000000000
vn 0.000000151 -1.000000000 0.000000000
f 3//7 4//8 8//9
vn 0.000000151 -1.000000000 0.000000000
vn 0.000000151 -1.000000000 0.000000000
vn 0.000000151 -1.000000000 0.000000000
f 3//10 8//11 7//12
vn -1.000000000 -0.000000151 0.000000000
vn -1.000000000 -0.000000151 0.000000000
vn -1.000000000 -0.000000151 0.000000000
f 7//13 8//14 6//15
vn -1.000000000 -0.000000151 0.000000000
vn -1.000000000 -0.000000151 0.000000000
vn -1.000000000 -0.000000151 0.000000000
f 7//16 6//17 5//18
vn -0.000000151 1.000000000 0.000000000
vn -0.000000151 1.000000000 0.000000000
vn -0.000000151 1.000000000 0.000000000
f 5//19 6//20 2//21
vn -0.000000151 1.000000000 0.000000000
vn -0.000000151 1.000000000 0.000000000
vn -0.000000151 1.000000000 0.000000000
f 5//22 2//23 1//24
vn 0.000000000 0.000000000 -1.000000000
vn 0.000000000 0.000000000 -1.000000000
vn 0.000000000 0.000000000 -1.000000000
f 3//25 7//26 5//27
vn 0.000000000 0.000000000 -1.000000000
vn 0.000000000 0.000000000 -1.000000000
vn 0.000000000 0.000000000 -1.000000000
f 3//28 5//29 1//30
vn 0.000000000 0.000000000 1.000000000
vn 0.000000000 0.000000000 1.000000000
vn 0.000000000 0.000000000 1.000000000
f 8//31 4//32 2//33
vn 0.000000000 0.000000000 1.000000000
vn 0.000000000 0.000000000 1.000000000
vn 0.000000000 0.000000000 1.000000000
f 8//34 2//35 6//36

o bread1_left
v 0.059999995 0.022600008 -0.010000002
v 0.059999995 0.022600008 0.014999997
v 0.059999995 0.012600009 -0.010000002
v 0.059999995 0.012600009 0.014999997
v -0.059999995 0.022599991 -0.010000002
v -0.059999995 0.022599991 0.014999997
v -0.059999995 0.012599991 -0.010000002
v -0.059999995 0.012599991 0.014999997
usemtl default_material
vn 1.000000000 0.000000151 0.000000000
vn 1.000000000 0.000000151 0.000000000
vn 1.000000000 0.000000151 0.000000000
f 9//37 10//38 12//39
vn 1.000000000 0.000000151 0.000000000
vn 1.000000000 0.000000151 0.000000000
vn 1.000000000 0.000000151 0.000000000
f 9//40 12//41 11//42
vn 0.000000151 -1.000000000 0.000000000
vn 0.000000151 -1.000000000 0.000000000
vn 0.000000151 -1.000000000 0.000000000
f 11//43 12//44 16//45
vn 0.000000151 -1.000000000 0.000000000
vn 0.000000151 -1.000000000 0.000000000
vn 0.000000151 -1.000000000 0.000000000
f 11//46 16//47 15//48
vn -1.000000000 -0.000000151 0.000000000
vn -1.000000000 -0.000000151 0.000000000
vn -1.000000000 -0.000000151 0.000000000
f 15//49 16//50 14//51
vn -1.000000000 -0.000000151 0.000000000
vn -1.000000000 -0.000000151 0.000000000
vn -1.000000000 -0.000000151 0.000000000
f 15//52 14//53 13//54
vn -0.000000151 1.000000000 0.000000000
vn -0.000000151 1.000000000 0.000000000
vn -0.000000151 1.000000000 0.000000000
f 13//55 14//56 10//57
vn -0.000000151 1.000000000 0.000000000
vn -0.000000151 1.000000000 0.000000000
vn -0.000000151 1.000000000 0.000000000
f 13//58 10//59 9//60
vn 0.000000000 0.000000000 -1.000000000
vn 0.000000000 0.000000000 -1.000000000
vn 0.000000000 0.000000000 -1.000000000
f 11//61 15//62 13//63
vn 0.000000000 0.000000000 -1.000000000
vn 0.000000000 0.000000000 -1.000000000
vn 0.000000000 0.000000000 -1.000000000
f 11//64 13//65 9//66
vn 0.000000000 0.000000000 1.000000000
vn 0.000000000 0.000000000 1.000000000
vn 0.000000000 0.000000000 1.000000000
f 16//67 12//68 10//69
vn 0.000000000 0.000000000 1.000000000
vn 0.000000000 0.000000000 1.000000000
vn 0.000000000 0.000000000 1.000000000
f 16//70 10//71 14//72

o bread1_right
v 0.059999995 -0.012699992 -0.010099988
v 0.059999995 -0.012699992 0.014900010
v 0.059999995 -0.022699993 -0.010099988
v 0.059999995 -0.022699993 0.014900010
v -0.059999995 -0.012700011 -0.010099988
v -0.059999995 -0.012700011 0.014900010
v -0.059999995 -0.022700010 -0.010099988
v -0.059999995 -0.022700010 0.014900010
usemtl default_material
vn 1.000000000 0.000000151 0.000000000
vn 1.000000000 0.000000151 0.000000000
vn 1.000000000 0.000000151 0.000000000
f 17//73 18//74 20//75
vn 1.000000000 0.000000151 0.000000000
vn 1.000000000 0.000000151 0.000000000
vn 1.000000000 0.000000151 0.000000000
f 17//76 20//77 19//78
vn 0.000000151 -1.000000000 0.000000000
vn 0.000000151 -1.000000000 0.000000000
vn 0.000000151 -1.000000000 0.000000000
f 19//79 20//80 24//81
vn 0.000000151 -1.000000000 0.000000000
vn 0.000000151 -1.000000000 0.000000000
vn 0.000000151 -1.000000000 0.000000000
f 19//82 24//83 23//84
vn -1.000000000 -0.000000151 0.000000000
vn -1.000000000 -0.000000151 0.000000000
vn -1.000000000 -0.000000151 0.000000000
f 23//85 24//86 22//87
vn -1.000000000 -0.000000151 0.000000000
vn -1.000000000 -0.000000151 0.000000000
vn -1.000000000 -0.000000151 0.000000000
f 23//88 22//89 21//90
vn -0.000000151 1.000000000 0.000000000
vn -0.000000151 1.000000000 0.000000000
vn -0.000000151 1.000000000 0.000000000
f 21//91 22//92 18//93
vn -0.000000151 1.000000000 0.000000000
vn -0.000000151 1.000000000 0.000000000
vn -0.000000151 1.000000000 0.000000000
f 21//94 18//95 17//96
vn 0.000000000 0.000000000 -1.000000000
vn 0.000000000 0.000000000 -1.000000000
vn 0.000000000 0.000000000 -1.000000000
f 19//97 23//98 21//99
vn 0.000000000 0.000000000 -1.000000000
vn 0.000000000 0.000000000 -1.000000000
vn 0.000000000 0.000000000 -1.000000000
f 19//100 21//101 17//102
vn 0.000000000 0.000000000 1.000000000
vn 0.000000000 0.000000000 1.000000000
vn 0.000000000 0.000000000 1.000000000
f 24//103 20//104 18//105
vn 0.000000000 0.000000000 1.000000000
vn 0.000000000 0.000000000 1.000000000
vn 0.000000000 0.000000000 1.000000000
f 24//106 18//107 22//108
