# Exported manufacturing runtime mesh
mtllib sausage2.mtl

o sausage2
v -0.000000013 0.010000000 -0.079999961
v -0.000000020 0.010000000 0.080000050
v 0.001950890 0.009807852 -0.079999961
v 0.001950883 0.009807852 0.080000050
v 0.003826821 0.009238794 -0.079999961
v 0.003826815 0.009238794 0.080000050
v 0.005555689 0.008314696 -0.079999961
v 0.005555683 0.008314696 0.080000050
v 0.007071055 0.007071068 -0.079999961
v 0.007071048 0.007071068 0.080000050
v 0.008314683 0.005555702 -0.079999961
v 0.008314677 0.005555702 0.080000050
v 0.009238782 0.003826834 -0.079999961
v 0.009238776 0.003826834 0.080000050
v 0.009807840 0.001950903 -0.079999961
v 0.009807833 0.001950903 0.080000050
v 0.009999988 0.000000000 -0.079999961
v 0.009999981 0.000000000 0.080000050
v 0.009807840 -0.001950903 -0.079999961
v 0.009807833 -0.001950903 0.080000050
v 0.009238782 -0.003826834 -0.079999961
v 0.009238776 -0.003826834 0.080000050
v 0.008314683 -0.005555702 -0.079999961
v 0.008314677 -0.005555702 0.080000050
v 0.007071055 -0.007071068 -0.079999961
v 0.007071048 -0.007071068 0.080000050
v 0.005555689 -0.008314696 -0.079999961
v 0.005555683 -0.008314696 0.080000050
v 0.003826821 -0.009238794 -0.079999961
v 0.003826815 -0.009238794 0.080000050
v 0.001950890 -0.009807852 -0.079999961
v 0.001950883 -0.009807852 0.080000050
v -0.000000013 -0.010000000 -0.079999961
v -0.000000020 -0.010000000 0.080000050
v -0.001950917 -0.009807852 -0.079999961
v -0.001950923 -0.009807852 0.080000050
v -0.003826848 -0.009238794 -0.079999961
v -0.003826855 -0.009238794 0.080000050
v -0.005555716 -0.008314696 -0.079999961
v -0.005555723 -0.008314696 0.080000050
v -0.007071082 -0.007071068 -0.079999961
v -0.007071088 -0.007071068 0.080000050
v -0.008314709 -0.005555702 -0.079999961
v -0.008314716 -0.005555702 0.080000050
v -0.009238808 -0.003826834 -0.079999961
v -0.009238815 -0.003826834 0.080000050
v -0.009807866 -0.001950903 -0.079999961
v -0.009807873 -0.001950903 0.080000050
v -0.010000014 0.000000000 -0.079999961
v -0.010000020 0.000000000 0.080000050
v -0.009807866 0.001950903 -0.079999961
v -0.009807873 0.001950903 0.080000050
v -0.009238808 0.003826834 -0.079999961
v -0.009238815 0.003826834 0.080000050
v -0.008314709 0.005555702 -0.079999961
v -0.008314716 0.005555702 0.080000050
v -0.007071082 0.007071068 -0.079999961
v -0.007071088 0.007071068 0.080000050
v -0.005555716 0.008314696 -0.079999961
v -0.005555723 0.008314696 0.080000050
v -0.003826848 0.009238794 -0.079999961
v -0.003826855 0.009238794 0.080000050
v -0.001950917 0.009807852 -0.079999961
v -0.001950923 0.009807852 0.080000050
usemtl sausage2_gazebo_visual
vn 0.098017283 0.995184660 0.000000004
vn 0.098017283 0.995184660 0.000000004
vn 0.098017283 0.995184660 0.000000004
f 1//1 2//2 4//3
vn 0.098017283 0.995184660 0.000000004
vn 0.098017283 0.995184660 0.000000004
vn 0.098017283 0.995184660 0.000000004
f 1//4 4//5 3//6
vn 0.290284604 0.956940353 0.000000012
vn 0.290284604 0.956940353 0.000000012
vn 0.290284604 0.956940353 0.000000012
f 3//7 4//8 6//9
vn 0.290284604 0.956940353 0.000000012
vn 0.290284604 0.956940353 0.000000012
vn 0.290284604 0.956940353 0.000000012
f 3//10 6//11 5//12
vn 0.471396655 0.881921291 0.000000019
vn 0.471396655 0.881921291 0.000000019
vn 0.471396655 0.881921291 0.000000019
f 5//13 6//14 8//15
vn 0.471396655 0.881921291 0.000000019
vn 0.471396655 0.881921291 0.000000019
vn 0.471396655 0.881921291 0.000000019
f 5//16 8//17 7//18
vn 0.634393334 0.773010433 0.000000026
vn 0.634393334 0.773010433 0.000000026
vn 0.634393334 0.773010433 0.000000026
f 7//19 8//20 10//21
vn 0.634393334 0.773010433 0.000000026
vn 0.634393334 0.773010433 0.000000026
vn 0.634393334 0.773010433 0.000000026
f 7//22 10//23 9//24
vn 0.773010373 0.634393394 0.000000032
vn 0.773010373 0.634393394 0.000000032
vn 0.773010373 0.634393394 0.000000032
f 9//25 10//26 12//27
vn 0.773010373 0.634393394 0.000000032
vn 0.773010373 0.634393394 0.000000032
vn 0.773010373 0.634393394 0.000000032
f 9//28 12//29 11//30
vn 0.881921232 0.471396714 0.000000036
vn 0.881921232 0.471396714 0.000000036
vn 0.881921232 0.471396714 0.000000036
f 11//31 12//32 14//33
vn 0.881921232 0.471396714 0.000000036
vn 0.881921232 0.471396714 0.000000036
vn 0.881921232 0.471396714 0.000000036
f 11//34 14//35 13//36
vn 0.956940353 0.290284663 0.000000039
vn 0.956940353 0.290284663 0.000000039
vn 0.956940353 0.290284663 0.000000039
f 13//37 14//38 16//39
vn 0.956940353 0.290284663 0.000000039
vn 0.956940353 0.290284663 0.000000039
vn 0.956940353 0.290284663 0.000000039
f 13//40 16//41 15//42
vn 0.995184720 0.098017298 0.000000041
vn 0.995184720 0.098017298 0.000000041
vn 0.995184720 0.098017298 0.000000041
f 15//43 16//44 18//45
vn 0.995184720 0.098017298 0.000000041
vn 0.995184720 0.098017298 0.000000041
vn 0.995184720 0.098017298 0.000000041
f 15//46 18//47 17//48
vn 0.995184720 -0.098017298 0.000000041
vn 0.995184720 -0.098017298 0.000000041
vn 0.995184720 -0.098017298 0.000000041
f 17//49 18//50 20//51
vn 0.995184720 -0.098017298 0.000000041
vn 0.995184720 -0.098017298 0.000000041
vn 0.995184720 -0.098017298 0.000000041
f 17//52 20//53 19//54
vn 0.956940353 -0.290284663 0.000000039
vn 0.956940353 -0.290284663 0.000000039
vn 0.956940353 -0.290284663 0.000000039
f 19//55 20//56 22//57
vn 0.956940353 -0.290284663 0.000000039
vn 0.956940353 -0.290284663 0.000000039
vn 0.956940353 -0.290284663 0.000000039
f 19//58 22//59 21//60
vn 0.881921232 -0.471396714 0.000000036
vn 0.881921232 -0.471396714 0.000000036
vn 0.881921232 -0.471396714 0.000000036
f 21//61 22//62 24//63
vn 0.881921232 -0.471396714 0.000000036
vn 0.881921232 -0.471396714 0.000000036
vn 0.881921232 -0.471396714 0.000000036
f 21//64 24//65 23//66
vn 0.773010373 -0.634393394 0.000000032
vn 0.773010373 -0.634393394 0.000000032
vn 0.773010373 -0.634393394 0.000000032
f 23//67 24//68 26//69
vn 0.773010373 -0.634393394 0.000000032
vn 0.773010373 -0.634393394 0.000000032
vn 0.773010373 -0.634393394 0.000000032
f 23//70 26//71 25//72
vn 0.634393334 -0.773010433 0.000000026
vn 0.634393334 -0.773010433 0.000000026
vn 0.634393334 -0.773010433 0.000000026
f 25//73 26//74 28//75
vn 0.634393334 -0.773010433 0.000000026
vn 0.634393334 -0.773010433 0.000000026
vn 0.634393334 -0.773010433 0.000000026
f 25//76 28//77 27//78
vn 0.471396655 -0.881921291 0.000000019
vn 0.471396655 -0.881921291 0.000000019
vn 0.471396655 -0.881921291 0.000000019
f 27//79 28//80 30//81
vn 0.471396655 -0.881921291 0.000000019
vn 0.471396655 -0.881921291 0.000000019
vn 0.471396655 -0.881921291 0.000000019
f 27//82 30//83 29//84
vn 0.290284604 -0.956940353 0.000000012
vn 0.290284604 -0.956940353 0.000000012
vn 0.290284604 -0.956940353 0.000000012
f 29//85 30//86 32//87
vn 0.290284604 -0.956940353 0.000000012
vn 0.290284604 -0.956940353 0.000000012
vn 0.290284604 -0.956940353 0.000000012
f 29//88 32//89 31//90
vn 0.098017283 -0.995184660 0.000000004
vn 0.098017283 -0.995184660 0.000000004
vn 0.098017283 -0.995184660 0.000000004
f 31//91 32//92 34//93
vn 0.098017283 -0.995184660 0.000000004
vn 0.098017283 -0.995184660 0.000000004
vn 0.098017283 -0.995184660 0.000000004
f 31//94 34//95 33//96
vn -0.098017283 -0.995184660 -0.000000004
vn -0.098017283 -0.995184660 -0.000000004
vn -0.098017283 -0.995184660 -0.000000004
f 33//97 34//98 36//99
vn -0.098017283 -0.995184660 -0.000000004
vn -0.098017283 -0.995184660 -0.000000004
vn -0.098017283 -0.995184660 -0.000000004
f 33//100 36//101 35//102
vn -0.290284604 -0.956940353 -0.000000012
vn -0.290284604 -0.956940353 -0.000000012
vn -0.290284604 -0.956940353 -0.000000012
f 35//103 36//104 38//105
vn -0.290284604 -0.956940353 -0.000000012
vn -0.290284604 -0.956940353 -0.000000012
vn -0.290284604 -0.956940353 -0.000000012
f 35//106 38//107 37//108
vn -0.471396655 -0.881921291 -0.000000019
vn -0.471396655 -0.881921291 -0.000000019
vn -0.471396655 -0.881921291 -0.000000019
f 37//109 38//110 40//111
vn -0.471396655 -0.881921291 -0.000000019
vn -0.471396655 -0.881921291 -0.000000019
vn -0.471396655 -0.881921291 -0.000000019
f 37//112 40//113 39//114
vn -0.634393334 -0.773010433 -0.000000026
vn -0.634393334 -0.773010433 -0.000000026
vn -0.634393334 -0.773010433 -0.000000026
f 39//115 40//116 42//117
vn -0.634393334 -0.773010433 -0.000000026
vn -0.634393334 -0.773010433 -0.000000026
vn -0.634393334 -0.773010433 -0.000000026
f 39//118 42//119 41//120
vn -0.773010373 -0.634393394 -0.000000032
vn -0.773010373 -0.634393394 -0.000000032
vn -0.773010373 -0.634393394 -0.000000032
f 41//121 42//122 44//123
vn -0.773010373 -0.634393394 -0.000000032
vn -0.773010373 -0.634393394 -0.000000032
vn -0.773010373 -0.634393394 -0.000000032
f 41//124 44//125 43//126
vn -0.881921232 -0.471396714 -0.000000036
vn -0.881921232 -0.471396714 -0.000000036
vn -0.881921232 -0.471396714 -0.000000036
f 43//127 44//128 46//129
vn -0.881921232 -0.471396714 -0.000000036
vn -0.881921232 -0.471396714 -0.000000036
vn -0.881921232 -0.471396714 -0.000000036
f 43//130 46//131 45//132
vn -0.956940353 -0.290284663 -0.000000039
vn -0.956940353 -0.290284663 -0.000000039
vn -0.956940353 -0.290284663 -0.000000039
f 45//133 46//134 48//135
vn -0.956940353 -0.290284663 -0.000000039
vn -0.956940353 -0.290284663 -0.000000039
vn -0.956940353 -0.290284663 -0.000000039
f 45//136 48//137 47//138
vn -0.995184720 -0.098017298 -0.000000041
vn -0.995184720 -0.098017298 -0.000000041
vn -0.995184720 -0.098017298 -0.000000041
f 47//139 48//140 50//141
vn -0.995184720 -0.098017298 -0.000000041
vn -0.995184720 -0.098017298 -0.000000041
vn -0.995184720 -0.098017298 -0.000000041
f 47//142 50//143 49//144
vn -0.995184720 0.098017298 -0.000000041
vn -0.995184720 0.098017298 -0.000000041
vn -0.995184720 0.098017298 -0.000000041
f 49//145 50//146 52//147
vn -0.995184720 0.098017298 -0.000000041
vn -0.995184720 0.098017298 -0.000000041
vn -0.995184720 0.098017298 -0.000000041
f 49//148 52//149 51//150
vn -0.956940353 0.290284663 -0.000000039
vn -0.956940353 0.290284663 -0.000000039
vn -0.956940353 0.290284663 -0.000000039
f 51//151 52//152 54//153
vn -0.956940353 0.290284663 -0.000000039
vn -0.956940353 0.290284663 -0.000000039
vn -0.956940353 0.290284663 -0.000000039
f 51//154 54//155 53//156
vn -0.881921232 0.471396714 -0.000000036
vn -0.881921232 0.471396714 -0.000000036
vn -0.881921232 0.471396714 -0.000000036
f 53//157 54//158 56//159
vn -0.881921232 0.471396714 -0.000000036
vn -0.881921232 0.471396714 -0.000000036
vn -0.881921232 0.471396714 -0.000000036
f 53//160 56//161 55//162
vn -0.773010373 0.634393394 -0.000000032
vn -0.773010373 0.634393394 -0.000000032
vn -0.773010373 0.634393394 -0.000000032
f 55//163 56//164 58//165
vn -0.773010373 0.634393394 -0.000000032
vn -0.773010373 0.634393394 -0.000000032
vn -0.773010373 0.634393394 -0.000000032
f 55//166 58//167 57//168
vn -0.634393334 0.773010433 -0.000000026
vn -0.634393334 0.773010433 -0.000000026
vn -0.634393334 0.773010433 -0.000000026
f 57//169 58//170 60//171
vn -0.634393334 0.773010433 -0.000000026
vn -0.634393334 0.773010433 -0.000000026
vn -0.634393334 0.773010433 -0.000000026
f 57//172 60//173 59//174
vn -0.471396655 0.881921291 -0.000000019
vn -0.471396655 0.881921291 -0.000000019
vn -0.471396655 0.881921291 -0.000000019
f 59//175 60//176 62//177
vn -0.471396655 0.881921291 -0.000000019
vn -0.471396655 0.881921291 -0.000000019
vn -0.471396655 0.881921291 -0.000000019
f 59//178 62//179 61//180
vn 0.000000111 0.000000000 1.000000000
vn 0.000000111 0.000000000 1.000000000
vn 0.000000111 0.000000000 1.000000000
f 6//181 4//182 2//183
vn 0.000000111 0.000000000 1.000000000
vn 0.000000111 0.000000000 1.000000000
vn 0.000000111 0.000000000 1.000000000
f 2//184 64//185 62//186
vn 0.000000111 0.000000000 1.000000000
vn 0.000000111 0.000000000 1.000000000
vn 0.000000111 0.000000000 1.000000000
f 62//187 60//188 58//189
vn 0.000000111 0.000000000 1.000000000
vn 0.000000111 0.000000000 1.000000000
vn 0.000000111 0.000000000 1.000000000
f 58//190 56//191 54//192
vn 0.000000111 0.000000000 1.000000000
vn 0.000000111 0.000000000 1.000000000
vn 0.000000111 0.000000000 1.000000000
f 54//193 52//194 50//195
vn 0.000000111 0.000000000 1.000000000
vn 0.000000111 0.000000000 1.000000000
vn 0.000000111 0.000000000 1.000000000
f 50//196 48//197 46//198
vn 0.000000111 0.000000000 1.000000000
vn 0.000000111 0.000000000 1.000000000
vn 0.000000111 0.000000000 1.000000000
f 46//199 44//200 42//201
vn 0.000000111 0.000000000 1.000000000
vn 0.000000111 0.000000000 1.000000000
vn 0.000000111 0.000000000 1.000000000
f 42//202 40//203 38//204
vn 0.000000111 0.000000000 1.000000000
vn 0.000000111 0.000000000 1.000000000
vn 0.000000111 0.000000000 1.000000000
f 38//205 36//206 34//207
vn 0.000000111 0.000000000 1.000000000
vn 0.000000111 0.000000000 1.000000000
vn 0.000000111 0.000000000 1.000000000
f 34//208 32//209 30//210
vn 0.000000111 0.000000000 1.000000000
vn 0.000000111 0.000000000 1.000000000
vn 0.000000111 0.000000000 1.000000000
f 30//211 28//212 26//213
vn 0.000000111 0.000000000 1.000000000
vn 0.000000111 0.000000000 1.000000000
vn 0.000000111 0.000000000 1.000000000
f 26//214 24//215 22//216
vn 0.000000111 0.000000000 1.000000000
vn 0.000000111 0.000000000 1.000000000
vn 0.000000111 0.000000000 1.000000000
f 22//217 20//218 18//219
vn 0.000000111 0.000000000 1.000000000
vn 0.000000111 0.000000000 1.000000000
vn 0.000000111 0.000000000 1.000000000
f 18//220 16//221 14//222
vn 0.000000111 0.000000000 1.000000000
vn 0.000000111 0.000000000 1.000000000
vn 0.000000111 0.000000000 1.000000000
f 14//223 12//224 10//225
vn 0.000000111 0.000000000 1.000000000
vn 0.000000111 0.000000000 1.000000000
vn 0.000000111 0.000000000 1.000000000
f 10//226 8//227 6//228
vn 0.000000111 0.000000000 1.000000000
vn 0.000000111 0.000000000 1.000000000
vn 0.000000111 0.000000000 1.000000000
f 6//229 2//230 62//231
vn 0.000000111 0.000000000 1.000000000
vn 0.000000111 0.000000000 1.000000000
vn 0.000000111 0.000000000 1.000000000
f 62//232 58//233 54//234
vn 0.000000111 0.000000000 1.000000000
vn 0.000000111 0.000000000 1.000000000
vn 0.000000111 0.000000000 1.000000000
f 54//235 50//236 46//237
vn 0.000000111 0.000000000 1.000000000
vn 0.000000111 0.000000000 1.000000000
vn 0.000000111 0.000000000 1.000000000
f 46//238 42//239 38//240
vn 0.000000111 0.000000000 1.000000000
vn 0.000000111 0.000000000 1.000000000
vn 0.000000111 0.000000000 1.000000000
f 38//241 34//242 30//243
vn 0.000000111 0.000000000 1.000000000
vn 0.000000111 0.000000000 1.000000000
vn 0.000000111 0.000000000 1.000000000
f 30//244 26//245 22//246
vn 0.000000111 0.000000000 1.000000000
vn 0.000000111 0.000000000 1.000000000
vn 0.000000111 0.000000000 1.000000000
f 22//247 18//248 14//249
vn 0.000000111 0.000000000 1.000000000
vn 0.000000111 0.000000000 1.000000000
vn 0.000000111 0.000000000 1.000000000
f 14//250 10//251 6//252
vn 0.000000111 0.000000000 1.000000000
vn 0.000000111 0.000000000 1.000000000
vn 0.000000111 0.000000000 1.000000000
f 6//253 62//254 54//255
vn 0.000000111 0.000000000 1.000000000
vn 0.000000111 0.000000000 1.000000000
vn 0.000000111 0.000000000 1.000000000
f 54//256 46//257 38//258
vn 0.000000111 0.000000000 1.000000000
vn 0.000000111 0.000000000 1.000000000
vn 0.000000111 0.000000000 1.000000000
f 38//259 30//260 22//261
vn 0.000000111 0.000000000 1.000000000
vn 0.000000111 0.000000000 1.000000000
vn 0.000000111 0.000000000 1.000000000
f 22//262 14//263 6//264
vn 0.000000111 0.000000000 1.000000000
vn 0.000000111 0.000000000 1.000000000
vn 0.000000111 0.000000000 1.000000000
f 6//265 54//266 38//267
vn 0.000000111 0.000000000 1.000000000
vn 0.000000111 0.000000000 1.000000000
vn 0.000000111 0.000000000 1.000000000
f 38//268 22//269 6//270
vn -0.290284604 0.956940353 -0.000000012
vn -0.290284604 0.956940353 -0.000000012
vn -0.290284604 0.956940353 -0.000000012
f 61//271 62//272 64//273
vn -0.290284604 0.956940353 -0.000000012
vn -0.290284604 0.956940353 -0.000000012
vn -0.290284604 0.956940353 -0.000000012
f 61//274 64//275 63//276
vn -0.098017283 0.995184660 -0.000000004
vn -0.098017283 0.995184660 -0.000000004
vn -0.098017283 0.995184660 -0.000000004
f 63//277 64//278 2//279
vn -0.098017283 0.995184660 -0.000000004
vn -0.098017283 0.995184660 -0.000000004
vn -0.098017283 0.995184660 -0.000000004
f 63//280 2//281 1//282
vn -0.000000111 0.000000000 -1.000000000
vn -0.000000111 0.000000000 -1.000000000
vn -0.000000111 0.000000000 -1.000000000
f 63//283 1//284 3//285
vn -0.000000111 0.000000000 -1.000000000
vn -0.000000111 0.000000000 -1.000000000
vn -0.000000111 0.000000000 -1.000000000
f 3//286 5//287 7//288
vn -0.000000111 0.000000000 -1.000000000
vn -0.000000111 0.000000000 -1.000000000
vn -0.000000111 0.000000000 -1.000000000
f 7//289 9//290 11//291
vn -0.000000111 0.000000000 -1.000000000
vn -0.000000111 0.000000000 -1.000000000
vn -0.000000111 0.000000000 -1.000000000
f 11//292 13//293 15//294
vn -0.000000111 0.000000000 -1.000000000
vn -0.000000111 0.000000000 -1.000000000
vn -0.000000111 0.000000000 -1.000000000
f 15//295 17//296 19//297
vn -0.000000111 0.000000000 -1.000000000
vn -0.000000111 0.000000000 -1.000000000
vn -0.000000111 0.000000000 -1.000000000
f 19//298 21//299 23//300
vn -0.000000111 0.000000000 -1.000000000
vn -0.000000111 0.000000000 -1.000000000
vn -0.000000111 0.000000000 -1.000000000
f 23//301 25//302 27//303
vn -0.000000111 0.000000000 -1.000000000
vn -0.000000111 0.000000000 -1.000000000
vn -0.000000111 0.000000000 -1.000000000
f 27//304 29//305 31//306
vn -0.000000111 0.000000000 -1.000000000
vn -0.000000111 0.000000000 -1.000000000
vn -0.000000111 0.000000000 -1.000000000
f 31//307 33//308 35//309
vn -0.000000111 0.000000000 -1.000000000
vn -0.000000111 0.000000000 -1.000000000
vn -0.000000111 0.000000000 -1.000000000
f 35//310 37//311 39//312
vn -0.000000111 0.000000000 -1.000000000
vn -0.000000111 0.000000000 -1.000000000
vn -0.000000111 0.000000000 -1.000000000
f 39//313 41//314 43//315
vn -0.000000111 0.000000000 -1.000000000
vn -0.000000111 0.000000000 -1.000000000
vn -0.000000111 0.000000000 -1.000000000
f 43//316 45//317 47//318
vn -0.000000111 0.000000000 -1.000000000
vn -0.000000111 0.000000000 -1.000000000
vn -0.000000111 0.000000000 -1.000000000
f 47//319 49//320 51//321
vn -0.000000111 0.000000000 -1.000000000
vn -0.000000111 0.000000000 -1.000000000
vn -0.000000111 0.000000000 -1.000000000
f 51//322 53//323 55//324
vn -0.000000111 0.000000000 -1.000000000
vn -0.000000111 0.000000000 -1.000000000
vn -0.000000111 0.000000000 -1.000000000
f 55//325 57//326 59//327
vn -0.000000111 0.000000000 -1.000000000
vn -0.000000111 0.000000000 -1.000000000
vn -0.000000111 0.000000000 -1.000000000
f 59//328 61//329 63//330
vn -0.000000111 0.000000000 -1.000000000
vn -0.000000111 0.000000000 -1.000000000
vn -0.000000111 0.000000000 -1.000000000
f 63//331 3//332 7//333
vn -0.000000111 0.000000000 -1.000000000
vn -0.000000111 0.000000000 -1.000000000
vn -0.000000111 0.000000000 -1.000000000
f 7//334 11//335 15//336
vn -0.000000111 0.000000000 -1.000000000
vn -0.000000111 0.000000000 -1.000000000
vn -0.000000111 0.000000000 -1.000000000
f 15//337 19//338 23//339
vn -0.000000111 0.000000000 -1.000000000
vn -0.000000111 0.000000000 -1.000000000
vn -0.000000111 0.000000000 -1.000000000
f 23//340 27//341 31//342
vn -0.000000111 0.000000000 -1.000000000
vn -0.000000111 0.000000000 -1.000000000
vn -0.000000111 0.000000000 -1.000000000
f 31//343 35//344 39//345
vn -0.000000111 0.000000000 -1.000000000
vn -0.000000111 0.000000000 -1.000000000
vn -0.000000111 0.000000000 -1.000000000
f 39//346 43//347 47//348
vn -0.000000111 0.000000000 -1.000000000
vn -0.000000111 0.000000000 -1.000000000
vn -0.000000111 0.000000000 -1.000000000
f 47//349 51//350 55//351
vn -0.000000111 0.000000000 -1.000000000
vn -0.000000111 0.000000000 -1.000000000
vn -0.000000111 0.000000000 -1.000000000
f 55//352 59//353 63//354
vn -0.000000111 0.000000000 -1.000000000
vn -0.000000111 0.000000000 -1.000000000
vn -0.000000111 0.000000000 -1.000000000
f 63//355 7//356 15//357
vn -0.000000111 0.000000000 -1.000000000
vn -0.000000111 0.000000000 -1.000000000
vn -0.000000111 0.000000000 -1.000000000
f 15//358 23//359 31//360
vn -0.000000111 0.000000000 -1.000000000
vn -0.000000111 0.000000000 -1.000000000
vn -0.000000111 0.000000000 -1.000000000
f 31//361 39//362 47//363
vn -0.000000111 0.000000000 -1.000000000
vn -0.000000111 0.000000000 -1.000000000
vn -0.000000111 0.000000000 -1.000000000
f 47//364 55//365 63//366
vn -0.000000111 0.000000000 -1.000000000
vn -0.000000111 0.000000000 -1.000000000
vn -0.000000111 0.000000000 -1.000000000
f 63//367 15//368 31//369
vn -0.000000111 0.000000000 -1.000000000
vn -0.000000111 0.000000000 -1.000000000
vn -0.000000111 0.000000000 -1.000000000
f 31//370 47//371 63//372
