<?xml version="1.0" encoding="utf-8"?>
<COLLADA xmlns="http://www.collada.org/2005/11/COLLADASchema" version="1.4.1" xmlns:xsi="http://www.w3.org/2001/XMLSchema-instance">
  <asset>
    <contributor>
      <author>Blender User</author>
      <authoring_tool>Blender 4.2.21 LTS commit date:2026-05-18, commit time:13:31, hash:62e63fd49c8c</authoring_tool>
    </contributor>
    <created>2026-05-27T19:49:16</created>
    <modified>2026-05-27T19:49:16</modified>
    <unit name="meter" meter="1"/>
    <up_axis>Z_UP</up_axis>
  </asset>
  <library_effects>
    <effect id="Material-effect">
      <profile_COMMON>
        <technique sid="common">
          <lambert>
            <emission>
              <color sid="emission">0 0 0 1</color>
            </emission>
            <diffuse>
              <color sid="diffuse">0.8026626 0.7831104 0 1</color>
            </diffuse>
            <index_of_refraction>
              <float sid="ior">1.5</float>
            </index_of_refraction>
          </lambert>
        </technique>
      </profile_COMMON>
      <extra>
        <technique profile="GOOGLEEARTH">
          <double_sided>1</double_sided>
        </technique>
        <technique profile="MAX3D">
          <double_sided>1</double_sided>
        </technique>
        <technique profile="MAYA">
          <double_sided>1</double_sided>
        </technique>
        <technique profile="OpenCOLLADA">
          <double_sided>1</double_sided>
        </technique>
        <technique profile="blender">
          <double_sided>1</double_sided>
        </technique>
      </extra>
    </effect>
  </library_effects>
  <library_images/>
  <library_materials>
    <material id="Material-material" name="Material">
      <instance_effect url="#Material-effect"/>
    </material>
  </library_materials>
  <library_geometries>
    <geometry id="Cube_001-mesh" name="Cube.001">
      <mesh>
        <source id="Cube_001-mesh-positions">
          <float_array id="Cube_001-mesh-positions-array" count="24">18.5 44.00003 801 18.5 43.99997 673 18.5 50.11092 801 18.5 83.99998 673 -18.5 44.00002 801 -18.5 43.99997 673 -18.5 50.11091 801 -18.5 83.99997 673</float_array>
          <technique_common>
            <accessor source="#Cube_001-mesh-positions-array" count="8" stride="3">
              <param name="X" type="float"/>
              <param name="Y" type="float"/>
              <param name="Z" type="float"/>
            </accessor>
          </technique_common>
        </source>
        <source id="Cube_001-mesh-normals">
          <float_array id="Cube_001-mesh-normals-array" count="36">1 -3.12123e-7 0 -1.99332e-7 0.9666928 0.2559399 -1 -3.12123e-7 0 2.062e-7 -1 4.17232e-7 0 0 1 0 0 -1 1 1.90735e-7 0 -1.99332e-7 0.9666928 0.2559399 -1 -1.90735e-7 0 0 -1 4.47035e-7 0 0 1 0 0 -1</float_array>
          <technique_common>
            <accessor source="#Cube_001-mesh-normals-array" count="12" stride="3">
              <param name="X" type="float"/>
              <param name="Y" type="float"/>
              <param name="Z" type="float"/>
            </accessor>
          </technique_common>
        </source>
        <source id="Cube_001-mesh-map-0">
          <float_array id="Cube_001-mesh-map-0-array" count="72">0.625 0 0.375 0.25 0.375 0 0.625 0.25 0.375 0.5 0.375 0.25 0.375 0.5 0.625 0.75 0.375 0.75 0.625 0.75 0.375 1 0.375 0.75 0.375 0.5 0.125 0.75 0.125 0.5 0.875 0.5 0.625 0.75 0.625 0.5 0.625 0 0.625 0.25 0.375 0.25 0.625 0.25 0.625 0.5 0.375 0.5 0.375 0.5 0.625 0.5 0.625 0.75 0.625 0.75 0.625 1 0.375 1 0.375 0.5 0.375 0.75 0.125 0.75 0.875 0.5 0.875 0.75 0.625 0.75</float_array>
          <technique_common>
            <accessor source="#Cube_001-mesh-map-0-array" count="36" stride="2">
              <param name="S" type="float"/>
              <param name="T" type="float"/>
            </accessor>
          </technique_common>
        </source>
        <vertices id="Cube_001-mesh-vertices">
          <input semantic="POSITION" source="#Cube_001-mesh-positions"/>
        </vertices>
        <triangles material="Material-material" count="12">
          <input semantic="VERTEX" source="#Cube_001-mesh-vertices" offset="0"/>
          <input semantic="NORMAL" source="#Cube_001-mesh-normals" offset="1"/>
          <input semantic="TEXCOORD" source="#Cube_001-mesh-map-0" offset="2" set="0"/>
          <p>1 0 0 2 0 1 0 0 2 3 1 3 6 1 4 2 1 5 6 2 6 5 2 7 4 2 8 5 3 9 0 3 10 4 3 11 6 4 12 0 4 13 2 4 14 3 5 15 5 5 16 7 5 17 1 6 18 3 6 19 2 6 20 3 7 21 7 7 22 6 7 23 6 8 24 7 8 25 5 8 26 5 9 27 1 9 28 0 9 29 6 10 30 4 10 31 0 10 32 3 11 33 1 11 34 5 11 35</p>
        </triangles>
      </mesh>
    </geometry>
  </library_geometries>
  <library_animations>
    <animation id="action_container-gripper" name="gripper">
      <animation id="gripper_gripperAction_001_transform" name="gripper">
        <source id="gripper_gripperAction_001_transform-input">
          <float_array id="gripper_gripperAction_001_transform-input-array" count="250">0.04166662 0.08333331 0.125 0.1666666 0.2083333 0.25 0.2916666 0.3333333 0.375 0.4166666 0.4583333 0.5 0.5416667 0.5833333 0.625 0.6666667 0.7083333 0.75 0.7916667 0.8333333 0.875 0.9166667 0.9583333 1 1.041667 1.083333 1.125 1.166667 1.208333 1.25 1.291667 1.333333 1.375 1.416667 1.458333 1.5 1.541667 1.583333 1.625 1.666667 1.708333 1.75 1.791667 1.833333 1.875 1.916667 1.958333 2 2.041667 2.083333 2.125 2.166667 2.208333 2.25 2.291667 2.333333 2.375 2.416667 2.458333 2.5 2.541667 2.583333 2.625 2.666667 2.708333 2.75 2.791667 2.833333 2.875 2.916667 2.958333 3 3.041667 3.083333 3.125 3.166667 3.208333 3.25 3.291667 3.333333 3.375 3.416667 3.458333 3.5 3.541667 3.583333 3.625 3.666667 3.708333 3.75 3.791667 3.833333 3.875 3.916667 3.958333 4 4.041666 4.083333 4.125 4.166666 4.208333 4.25 4.291666 4.333333 4.375 4.416666 4.458333 4.5 4.541666 4.583333 4.625 4.666666 4.708333 4.75 4.791666 4.833333 4.875 4.916666 4.958333 5 5.041666 5.083333 5.125 5.166666 5.208333 5.25 5.291666 5.333333 5.375 5.416666 5.458333 5.5 5.541666 5.583333 5.625 5.666666 5.708333 5.75 5.791666 5.833333 5.875 5.916666 5.958333 6 6.041666 6.083333 6.125 6.166666 6.208333 6.25 6.291666 6.333333 6.375 6.416666 6.458333 6.5 6.541666 6.583333 6.625 6.666666 6.708333 6.75 6.791666 6.833333 6.875 6.916666 6.958333 7 7.041666 7.083333 7.125 7.166666 7.208333 7.25 7.291666 7.333333 7.375 7.416666 7.458333 7.5 7.541666 7.583333 7.625 7.666666 7.708333 7.75 7.791666 7.833333 7.875 7.916666 7.958333 8 8.041667 8.083333 8.125 8.166667 8.208333 8.25 8.291667 8.333333 8.375 8.416667 8.458333 8.5 8.541667 8.583333 8.625 8.666667 8.708333 8.75 8.791667 8.833333 8.875 8.916667 8.958333 9 9.041667 9.083333 9.125 9.166667 9.208333 9.25 9.291667 9.333333 9.375 9.416667 9.458333 9.5 9.541667 9.583333 9.625 9.666667 9.708333 9.75 9.791667 9.833333 9.875 9.916667 9.958333 10 10.04167 10.08333 10.125 10.16667 10.20833 10.25 10.29167 10.33333 10.375 10.41667</float_array>
          <technique_common>
            <accessor source="#gripper_gripperAction_001_transform-input-array" count="250" stride="1">
              <param name="TIME" type="float"/>
            </accessor>
          </technique_common>
        </source>
        <source id="gripper_gripperAction_001_transform-output">
          <float_array id="gripper_gripperAction_001_transform-output-array" count="4000">-0.037 -6.03983e-9 0 0 5.58684e-9 -0.04 0 0 0 0 0.128 0 0 0 0 1 -0.03704647 -6.07844e-6 0 0 5.62311e-6 -0.04004633 0 0 0 0 0.1280421 0 0 0 0 1 -0.03718538 -2.4303e-5 0 0 2.2489e-5 -0.0401848 0 0 0 0 0.1281679 0 0 0 0 1 -0.03741596 -5.4852e-5 0 0 5.07821e-5 -0.04041466 0 0 0 0 0.1283767 0 0 0 0 1 -0.03773744 -9.802e-5 0 0 9.08067e-5 -0.04073513 0 0 0 0 0.1286679 0 0 0 0 1 -0.03814904 -1.54276e-4 0 0 1.43041e-4 -0.04114543 0 0 0 0 0.1290407 0 0 0 0 1 -0.03864995 -2.24242e-4 0 0 2.08116e-4 -0.04164476 0 0 0 0 0.1294945 0 0 0 0 1 -0.03923937 -3.08676e-4 0 0 2.86801e-4 -0.0422323 0 0 0 0 0.1300287 0 0 0 0 1 -0.03991647 -4.08508e-4 0 0 3.80034e-4 -0.04290723 0 0 0 0 0.1306425 0 0 0 0 1 -0.0406804 -5.24768e-4 0 0 4.88857e-4 -0.04366871 0 0 0 0 0.1313353 0 0 0 0 1 -0.0415303 -6.58627e-4 0 0 6.14455e-4 -0.04451585 0 0 0 0 0.1321063 0 0 0 0 1 -0.04246531 -8.11408e-4 0 0 7.5816e-4 -0.04544778 0 0 0 0 0.132955 0 0 0 0 1 -0.04348449 -9.84537e-4 0 0 9.21412e-4 -0.04646359 0 0 0 0 0.1338806 0 0 0 0 1 -0.04458693 -0.001179582 0 0 0.00110579 -0.04756234 0 0 0 0 0.1348824 0 0 0 0 1 -0.04577167 -0.001398206 0 0 0.001312971 -0.04874306 0 0 0 0 0.1359598 0 0 0 0 1 -0.0470377 -0.001642194 0 0 0.001544754 -0.05000475 0 0 0 0 0.1371121 0 0 0 0 1 -0.048384 -0.001913425 0 0 0.001803032 -0.05134638 0 0 0 0 0.1383387 0 0 0 0 1 -0.04980951 -0.002213894 0 0 0.002089814 -0.05276687 0 0 0 0 0.1396387 0 0 0 0 1 -0.05131311 -0.002545705 0 0 0.00240722 -0.05426509 0 0 0 0 0.1410117 0 0 0 0 1 -0.05289364 -0.002911005 0 0 0.002757413 -0.05583991 0 0 0 0 0.1424568 0 0 0 0 1 -0.05454992 -0.003312121 0 0 0.003142732 -0.05749008 0 0 0 0 0.1439734 0 0 0 0 1 -0.05628066 -0.003751344 0 0 0.003565488 -0.05921436 0 0 0 0 0.1455609 0 0 0 0 1 -0.05808457 -0.004231166 0 0 0.004028188 -0.06101142 0 0 0 0 0.1472185 0 0 0 0 1 -0.05996027 -0.004754054 0 0 0.004533316 -0.06287988 0 0 0 0 0.1489456 0 0 0 0 1 -0.06190633 -0.00532259 0 0 0.005083473 -0.06481829 0 0 0 0 0.1507415 0 0 0 0 1 -0.06392124 -0.005939432 0 0 0.005681334 -0.06682514 0 0 0 0 0.1526054 0 0 0 0 1 -0.06600341 -0.006607269 0 0 0.006329603 -0.06889883 0 0 0 0 0.1545369 0 0 0 0 1 -0.06815122 -0.00732884 0 0 0.007031044 -0.07103772 0 0 0 0 0.1565351 0 0 0 0 1 -0.07036291 -0.008106986 0 0 0.007788512 -0.07324006 0 0 0 0 0.1585994 0 0 0 0 1 -0.07263669 -0.008944521 0 0 0.008604843 -0.07550404 0 0 0 0 0.1607291 0 0 0 0 1 -0.07497068 -0.009844334 0 0 0.009482944 -0.07782776 0 0 0 0 0.1629235 0 0 0 0 1 -0.07736285 -0.01080934 0 0 0.01042575 -0.0802092 0 0 0 0 0.165182 0 0 0 0 1 -0.07981116 -0.01184247 0 0 0.01143622 -0.08264629 0 0 0 0 0.1675038 0 0 0 0 1 -0.08231344 -0.01294671 0 0 0.01251735 -0.08513687 0 0 0 0 0.1698884 0 0 0 0 1 -0.08486739 -0.01412501 0 0 0.01367212 -0.08767861 0 0 0 0 0.1723349 0 0 0 0 1 -0.08747067 -0.01538038 0 0 0.01490356 -0.09026919 0 0 0 0 0.1748428 0 0 0 0 1 -0.0901208 -0.01671579 0 0 0.01621466 -0.09290608 0 0 0 0 0.1774114 0 0 0 0 1 -0.09281521 -0.01813423 0 0 0.01760843 -0.09558673 0 0 0 0 0.18004 0 0 0 0 1 -0.09555119 -0.01963867 0 0 0.01908787 -0.09830842 0 0 0 0 0.1827278 0 0 0 0 1 -0.09832596 -0.02123209 0 0 0.02065598 -0.1010684 0 0 0 0 0.1854743 0 0 0 0 1 -0.1011366 -0.02291737 0 0 0.02231566 -0.1038636 0 0 0 0 0.1882788 0 0 0 0 1 -0.1039801 -0.0246975 0 0 0.02406992 -0.1066912 0 0 0 0 0.1911405 0 0 0 0 1 -0.1068533 -0.02657527 0 0 0.02592159 -0.1095479 0 0 0 0 0.1940588 0 0 0 0 1 -0.109753 -0.02855358 0 0 0.02787359 -0.1124305 0 0 0 0 0.197033 0 0 0 0 1 -0.1126757 -0.03063516 0 0 0.02992866 -0.1153355 0 0 0 0 0.2000625 0 0 0 0 1 -0.1156181 -0.03282276 0 0 0.03208959 -0.1182597 0 0 0 0 0.2031465 0 0 0 0 1 -0.1185763 -0.03511903 0 0 0.03435904 -0.1211991 0 0 0 0 0.2062844 0 0 0 0 1 -0.1215469 -0.0375266 0 0 0.03673969 -0.1241503 0 0 0 0 0.2094756 0 0 0 0 1 -0.1245259 -0.04004791 0 0 0.03923399 -0.1271092 0 0 0 0 0.2127192 0 0 0 0 1 -0.1275093 -0.04268545 0 0 0.04184445 -0.130072 0 0 0 0 0.2160147 0 0 0 0 1 -0.130493 -0.04544162 0 0 0.04457349 -0.1330345 0 0 0 0 0.2193614 0 0 0 0 1 -0.1334729 -0.04831852 0 0 0.04742327 -0.1359926 0 0 0 0 0.2227586 0 0 0 0 1 -0.1364446 -0.05131843 0 0 0.05039607 -0.1389418 0 0 0 0 0.2262056 0 0 0 0 1 -0.1394037 -0.0544433 0 0 0.05349388 -0.1418779 0 0 0 0 0.2297017 0 0 0 0 1 -0.1423457 -0.05769508 0 0 0.05671865 -0.1447962 0 0 0 0 0.2332463 0 0 0 0 1 -0.1452659 -0.06107559 0 0 0.06007224 -0.1476921 0 0 0 0 0.2368387 0 0 0 0 1 -0.1481595 -0.06458642 0 0 0.06355629 -0.1505609 0 0 0 0 0.2404782 0 0 0 0 1 -0.1510217 -0.06822917 0 0 0.06717239 -0.1533977 0 0 0 0 0.2441641 0 0 0 0 1 -0.1538476 -0.07200518 0 0 0.07092194 -0.1561974 0 0 0 0 0.2478957 0 0 0 0 1 -0.1566321 -0.07591561 0 0 0.07480609 -0.1589552 0 0 0 0 0.2516725 0 0 0 0 1 -0.1593699 -0.0799617 0 0 0.07882612 -0.1616659 0 0 0 0 0.2554937 0 0 0 0 1 -0.162056 -0.08414419 0 0 0.08298282 -0.164324 0 0 0 0 0.2593585 0 0 0 0 1 -0.164685 -0.08846393 0 0 0.08727705 -0.1669246 0 0 0 0 0.2632664 0 0 0 0 1 -0.1672514 -0.09292154 0 0 0.09170943 -0.169462 0 0 0 0 0.2672167 0 0 0 0 1 -0.1697499 -0.09751721 0 0 0.09628022 -0.1719308 0 0 0 0 0.2712086 0 0 0 0 1 -0.1721748 -0.1022512 0 0 0.1009897 -0.1743255 0 0 0 0 0.2752416 0 0 0 0 1 -0.1745206 -0.1071237 0 0 0.105838 -0.1766406 0 0 0 0 0.2793148 0 0 0 0 1 -0.1767817 -0.1121344 0 0 0.110825 -0.1788704 0 0 0 0 0.2834277 0 0 0 0 1 -0.1789522 -0.1172828 0 0 0.11595 -0.1810092 0 0 0 0 0.2875797 0 0 0 0 1 -0.1810266 -0.1225685 0 0 0.1212129 -0.1830512 0 0 0 0 0.2917699 0 0 0 0 1 -0.182999 -0.1279906 0 0 0.1266126 -0.1849908 0 0 0 0 0.2959976 0 0 0 0 1 -0.1848637 -0.1335482 0 0 0.1321483 -0.1868221 0 0 0 0 0.3002624 0 0 0 0 1 -0.1866147 -0.1392399 0 0 0.1378185 -0.1885393 0 0 0 0 0.3045634 0 0 0 0 1 -0.1882463 -0.1450644 0 0 0.1436222 -0.1901366 0 0 0 0 0.3089 0 0 0 0 1 -0.1897527 -0.1510199 0 0 0.1495574 -0.1916082 0 0 0 0 0.3132715 0 0 0 0 1 -0.1911279 -0.1571046 0 0 0.1556225 -0.1929483 0 0 0 0 0.3176773 0 0 0 0 1 -0.1923664 -0.1633164 0 0 0.1618151 -0.1941511 0 0 0 0 0.3221166 0 0 0 0 1 -0.1934622 -0.1696528 0 0 0.1681331 -0.1952108 0 0 0 0 0.3265887 0 0 0 0 1 -0.1944095 -0.1761115 0 0 0.1745739 -0.1961218 0 0 0 0 0.3310931 0 0 0 0 1 -0.1952028 -0.1826894 0 0 0.1811347 -0.1968782 0 0 0 0 0.335629 0 0 0 0 1 -0.1958362 -0.1893837 0 0 0.1878125 -0.1974745 0 0 0 0 0.3401957 0 0 0 0 1 -0.1963044 -0.1961909 0 0 0.1946039 -0.1979052 0 0 0 0 0.3447925 0 0 0 0 1 -0.1966016 -0.2031077 0 0 0.2015056 -0.1981647 0 0 0 0 0.3494189 0 0 0 0 1 -0.1967226 -0.2101302 0 0 0.2085138 -0.1982476 0 0 0 0 0.3540741 0 0 0 0 1 -0.1966618 -0.2172545 0 0 0.2156246 -0.1981485 0 0 0 0 0.3587574 0 0 0 0 1 -0.1964142 -0.2244765 0 0 0.2228337 -0.1978622 0 0 0 0 0.3634681 0 0 0 0 1 -0.1959745 -0.2317917 0 0 0.2301368 -0.1973837 0 0 0 0 0.3682057 0 0 0 0 1 -0.1953377 -0.2391955 0 0 0.2375294 -0.1967078 0 0 0 0 0.3729693 0 0 0 0 1 -0.1944989 -0.246683 0 0 0.2450064 -0.1958299 0 0 0 0 0.3777583 0 0 0 0 1 -0.1934533 -0.2542492 0 0 0.2525629 -0.194745 0 0 0 0 0.3825721 0 0 0 0 1 -0.1921965 -0.2618887 0 0 0.2601935 -0.1934487 0 0 0 0 0.3874099 0 0 0 0 1 -0.1907239 -0.2695962 0 0 0.267893 -0.1919365 0 0 0 0 0.3922711 0 0 0 0 1 -0.1890313 -0.2773657 0 0 0.2756553 -0.1902042 0 0 0 0 0.397155 0 0 0 0 1 -0.1871145 -0.2851917 0 0 0.2834749 -0.1882477 0 0 0 0 0.4020609 0 0 0 0 1 -0.1849696 -0.2930679 0 0 0.2913456 -0.1860631 0 0 0 0 0.4069883 0 0 0 0 1 -0.182593 -0.3009881 0 0 0.2992611 -0.1836467 0 0 0 0 0.4119362 0 0 0 0 1 -0.1799811 -0.3089457 0 0 0.3072149 -0.1809952 0 0 0 0 0.4169042 0 0 0 0 1 -0.1771306 -0.3169344 0 0 0.3152006 -0.1781049 0 0 0 0 0.4218915 0 0 0 0 1 -0.1740384 -0.3249472 0 0 0.3232112 -0.1749732 0 0 0 0 0.4268974 0 0 0 0 1 -0.1707018 -0.3329772 0 0 0.3312399 -0.1715971 0 0 0 0 0.4319214 0 0 0 0 1 -0.1671179 -0.3410175 0 0 0.3392798 -0.1679738 0 0 0 0 0.4369625 0 0 0 0 1 -0.1632847 -0.3490605 0 0 0.3473233 -0.1641014 0 0 0 0 0.4420202 0 0 0 0 1 -0.1591997 -0.3570993 0 0 0.3553633 -0.1599774 0 0 0 0 0.447094 0 0 0 0 1 -0.1548613 -0.3651262 0 0 0.3633924 -0.1556001 0 0 0 0 0.4521829 0 0 0 0 1 -0.1502677 -0.3731337 0 0 0.3714029 -0.150968 0 0 0 0 0.4572865 0 0 0 0 1 -0.1454179 -0.3811142 0 0 0.3793871 -0.1460798 0 0 0 0 0.4624038 0 0 0 0 1 -0.1403104 -0.3890598 0 0 0.3873374 -0.1409343 0 0 0 0 0.4675346 0 0 0 0 1 -0.1349448 -0.3969629 0 0 0.3952459 -0.135531 0 0 0 0 0.4726777 0 0 0 0 1 -0.1293204 -0.4048153 0 0 0.4031048 -0.1298692 0 0 0 0 0.4778328 0 0 0 0 1 -0.123437 -0.4126094 0 0 0.410906 -0.1239488 0 0 0 0 0.482999 0 0 0 0 1 -0.1172949 -0.420337 0 0 0.4186414 -0.1177699 0 0 0 0 0.4881757 0 0 0 0 1 -0.1108942 -0.4279902 0 0 0.4263033 -0.111333 0 0 0 0 0.4933623 0 0 0 0 1 -0.1042356 -0.4355609 0 0 0.4338835 -0.1046386 0 0 0 0 0.498558 0 0 0 0 1 -0.09732028 -0.4430411 0 0 0.4413739 -0.09768788 0 0 0 0 0.5037621 0 0 0 0 1 -0.09014933 -0.4504229 0 0 0.4487666 -0.09048204 0 0 0 0 0.5089741 0 0 0 0 1 -0.08272444 -0.457698 0 0 0.4560535 -0.08302274 0 0 0 0 0.5141933 0 0 0 0 1 -0.07504743 -0.4648586 0 0 0.4632266 -0.07531183 0 0 0 0 0.5194188 0 0 0 0 1 -0.06712046 -0.4718968 0 0 0.4702778 -0.06735153 0 0 0 0 0.52465 0 0 0 0 1 -0.05894602 -0.4788047 0 0 0.4771996 -0.0591443 0 0 0 0 0.5298865 0 0 0 0 1 -0.05052685 -0.4855745 0 0 0.4839838 -0.05069292 0 0 0 0 0.5351272 0 0 0 0 1 -0.0418661 -0.4921985 0 0 0.4906229 -0.04200055 0 0 0 0 0.5403718 0 0 0 0 1 -0.03296723 -0.498669 0 0 0.4971091 -0.03307067 0 0 0 0 0.5456193 0 0 0 0 1 -0.02383364 -0.5049785 0 0 0.5034351 -0.0239067 0 0 0 0 0.5508693 0 0 0 0 1 -0.01446934 -0.5111197 0 0 0.5095932 -0.01451269 0 0 0 0 0.5561209 0 0 0 0 1 -0.004878674 -0.5170854 0 0 0.5155764 -0.004892953 0 0 0 0 0.5613736 0 0 0 0 1 0.004933768 -0.5228681 0 0 0.5213772 0.004947876 0 0 0 0 0.5666265 0 0 0 0 1 0.01496361 -0.5284614 0 0 0.5269891 0.01500541 0 0 0 0 0.5718792 0 0 0 0 1 0.0252052 -0.5338579 0 0 0.5324048 0.025274 0 0 0 0 0.5771307 0 0 0 0 1 0.03565377 -0.5390515 0 0 0.5376179 0.03574885 0 0 0 0 0.5823807 0 0 0 0 1 0.04630354 -0.5440357 0 0 0.5426221 0.04642416 0 0 0 0 0.5876282 0 0 0 0 1 0.0571487 -0.5488039 0 0 0.5474108 0.05729415 0 0 0 0 0.5928727 0 0 0 0 1 0.06818315 -0.5533505 0 0 0.5519783 0.06835265 0 0 0 0 0.5981135 0 0 0 0 1 0.07940074 -0.5576697 0 0 0.5563187 0.07959356 0 0 0 0 0.6033499 0 0 0 0 1 0.09079488 -0.5617557 0 0 0.5604264 0.09101024 0 0 0 0 0.6085812 0 0 0 0 1 0.102359 -0.5656034 0 0 0.5642961 0.1025961 0 0 0 0 0.6138068 0 0 0 0 1 0.1140858 -0.5692077 0 0 0.5679226 0.1143439 0 0 0 0 0.6190258 0 0 0 0 1 0.1259686 -0.5725637 0 0 0.5713012 0.126247 0 0 0 0 0.6242379 0 0 0 0 1 0.1379999 -0.575667 0 0 0.5744274 0.1382977 0 0 0 0 0.629442 0 0 0 0 1 0.1501721 -0.5785134 0 0 0.5772969 0.1504885 0 0 0 0 0.6346377 0 0 0 0 1 0.1624778 -0.5810987 0 0 0.5799056 0.1628121 0 0 0 0 0.6398243 0 0 0 0 1 0.1749093 -0.5834196 0 0 0.5822499 0.1752607 0 0 0 0 0.645001 0 0 0 0 1 0.1874583 -0.5854724 0 0 0.5843264 0.1878259 0 0 0 0 0.6501672 0 0 0 0 1 0.2001174 -0.5872541 0 0 0.5861319 0.2005005 0 0 0 0 0.6553223 0 0 0 0 1 0.2128775 -0.588762 0 0 0.5876638 0.2132754 0 0 0 0 0.6604655 0 0 0 0 1 0.2257309 -0.5899935 0 0 0.5889194 0.2261427 0 0 0 0 0.6655961 0 0 0 0 1 0.2386695 -0.5909469 0 0 0.5898967 0.2390945 0 0 0 0 0.6707136 0 0 0 0 1 0.2516844 -0.5916198 0 0 0.5905938 0.2521217 0 0 0 0 0.675817 0 0 0 0 1 0.2647671 -0.592011 0 0 0.5910093 0.2652159 0 0 0 0 0.6809059 0 0 0 0 1 0.2779096 -0.5921194 0 0 0.5911418 0.2783691 0 0 0 0 0.6859797 0 0 0 0 1 0.2911024 -0.5919442 0 0 0.5909906 0.2915721 0 0 0 0 0.6910374 0 0 0 0 1 0.3043379 -0.5914846 0 0 0.5905553 0.3048169 0 0 0 0 0.6960787 0 0 0 0 1 0.3176068 -0.5907407 0 0 0.5898352 0.3180943 0 0 0 0 0.7011026 0 0 0 0 1 0.3309005 -0.5897125 0 0 0.5888312 0.3313958 0 0 0 0 0.7061083 0 0 0 0 1 0.3442109 -0.5884006 0 0 0.5875431 0.3447132 0 0 0 0 0.7110958 0 0 0 0 1 0.3575287 -0.5868058 0 0 0.585972 0.3580374 0 0 0 0 0.7160637 0 0 0 0 1 0.3708461 -0.5849292 0 0 0.584119 0.3713605 0 0 0 0 0.7210118 0 0 0 0 1 0.3841539 -0.5827722 0 0 0.5819854 0.3846732 0 0 0 0 0.725939 0 0 0 0 1 0.3974438 -0.5803369 0 0 0.5795732 0.3979675 0 0 0 0 0.730845 0 0 0 0 1 0.4107081 -0.577625 0 0 0.5768844 0.4112354 0 0 0 0 0.7357289 0 0 0 0 1 0.4239373 -0.5746394 0 0 0.5739215 0.4244677 0 0 0 0 0.7405902 0 0 0 0 1 0.4371246 -0.5713825 0 0 0.5706872 0.4376571 0 0 0 0 0.745428 0 0 0 0 1 0.4502611 -0.5678573 0 0 0.5671844 0.4507952 0 0 0 0 0.7502418 0 0 0 0 1 0.4633387 -0.5640675 0 0 0.5634167 0.463874 0 0 0 0 0.7550308 0 0 0 0 1 0.4763504 -0.5600165 0 0 0.5593874 0.4768861 0 0 0 0 0.7597944 0 0 0 0 1 0.4892876 -0.5557085 0 0 0.5551009 0.4898232 0 0 0 0 0.7645319 0 0 0 0 1 0.5021433 -0.5511476 0 0 0.550561 0.5026783 0 0 0 0 0.7692426 0 0 0 0 1 0.51491 -0.5463384 0 0 0.5457728 0.5154437 0 0 0 0 0.7739259 0 0 0 0 1 0.5275806 -0.5412855 0 0 0.5407403 0.5281126 0 0 0 0 0.7785811 0 0 0 0 1 0.5401483 -0.5359941 0 0 0.535469 0.540678 0 0 0 0 0.7832075 0 0 0 0 1 0.5526058 -0.5304695 0 0 0.5299644 0.5531326 0 0 0 0 0.7878043 0 0 0 0 1 0.5649469 -0.5247173 0 0 0.5242316 0.5654705 0 0 0 0 0.792371 0 0 0 0 1 0.5771651 -0.5187433 0 0 0.5182766 0.5776848 0 0 0 0 0.7969069 0 0 0 0 1 0.5892541 -0.5125535 0 0 0.5121055 0.5897697 0 0 0 0 0.8014113 0 0 0 0 1 0.6012075 -0.5061547 0 0 0.5057247 0.6017186 0 0 0 0 0.8058834 0 0 0 0 1 0.6130206 -0.4995524 0 0 0.4991404 0.6135265 0 0 0 0 0.8103227 0 0 0 0 1 0.6246869 -0.4927539 0 0 0.4923593 0.6251875 0 0 0 0 0.8147284 0 0 0 0 1 0.6362016 -0.4857663 0 0 0.4853888 0.6366963 0 0 0 0 0.8191 0 0 0 0 1 0.6475598 -0.478596 0 0 0.4782352 0.6480483 0 0 0 0 0.8234366 0 0 0 0 1 0.6587563 -0.4712509 0 0 0.4709063 0.6592383 0 0 0 0 0.8277376 0 0 0 0 1 0.6697869 -0.4637378 0 0 0.463409 0.6702622 0 0 0 0 0.8320024 0 0 0 0 1 0.6806469 -0.456065 0 0 0.4557515 0.681115 0 0 0 0 0.8362301 0 0 0 0 1 0.691333 -0.4482393 0 0 0.4479409 0.6917936 0 0 0 0 0.8404204 0 0 0 0 1 0.7018406 -0.4402695 0 0 0.4399855 0.7022936 0 0 0 0 0.8445722 0 0 0 0 1 0.7121667 -0.4321631 0 0 0.4318932 0.7126116 0 0 0 0 0.8486851 0 0 0 0 1 0.7223077 -0.4239284 0 0 0.4236721 0.7227446 0 0 0 0 0.8527584 0 0 0 0 1 0.7322612 -0.4155731 0 0 0.41533 0.7326898 0 0 0 0 0.8567914 0 0 0 0 1 0.7420242 -0.4071058 0 0 0.4068756 0.742444 0 0 0 0 0.8607833 0 0 0 0 1 0.7515942 -0.398535 0 0 0.3983171 0.7520052 0 0 0 0 0.8647336 0 0 0 0 1 0.7609685 -0.3898693 0 0 0.3896633 0.7613708 0 0 0 0 0.8686416 0 0 0 0 1 0.7701461 -0.381117 0 0 0.3809226 0.7705393 0 0 0 0 0.8725063 0 0 0 0 1 0.7791249 -0.3722866 0 0 0.3721032 0.7795088 0 0 0 0 0.8763275 0 0 0 0 1 0.7879036 -0.3633865 0 0 0.3632139 0.788278 0 0 0 0 0.8801042 0 0 0 0 1 0.7964808 -0.3544258 0 0 0.3542635 0.7968459 0 0 0 0 0.8838359 0 0 0 0 1 0.8048557 -0.3454128 0 0 0.3452603 0.8052114 0 0 0 0 0.8875219 0 0 0 0 1 0.8130278 -0.3363564 0 0 0.3362133 0.8133738 0 0 0 0 0.8911613 0 0 0 0 1 0.8209964 -0.3272659 0 0 0.3271319 0.8213326 0 0 0 0 0.8947538 0 0 0 0 1 0.8287617 -0.3181484 0 0 0.3180231 0.8290883 0 0 0 0 0.8982983 0 0 0 0 1 0.8363231 -0.3090145 0 0 0.3088974 0.8366401 0 0 0 0 0.9017944 0 0 0 0 1 0.8436818 -0.2998714 0 0 0.2997623 0.843989 0 0 0 0 0.9052414 0 0 0 0 1 0.8508378 -0.2907282 0 0 0.2906266 0.8511351 0 0 0 0 0.9086387 0 0 0 0 1 0.8577918 -0.2815936 0 0 0.2814991 0.8580795 0 0 0 0 0.9119853 0 0 0 0 1 0.8645445 -0.2724766 0 0 0.272389 0.8648224 0 0 0 0 0.9152808 0 0 0 0 1 0.8710974 -0.2633852 0 0 0.2633041 0.8713657 0 0 0 0 0.9185244 0 0 0 0 1 0.8774517 -0.2543279 0 0 0.2542529 0.8777105 0 0 0 0 0.9217156 0 0 0 0 1 0.8836092 -0.2453132 0 0 0.245244 0.8838583 0 0 0 0 0.9248534 0 0 0 0 1 0.8895714 -0.2363491 0 0 0.2362854 0.8898109 0 0 0 0 0.9279376 0 0 0 0 1 0.89534 -0.2274447 0 0 0.2273863 0.8955701 0 0 0 0 0.930967 0 0 0 0 1 0.9009168 -0.2186077 0 0 0.2185541 0.9011377 0 0 0 0 0.9339412 0 0 0 0 1 0.9063049 -0.2098449 0 0 0.2097959 0.9065166 0 0 0 0 0.9368597 0 0 0 0 1 0.9115056 -0.2011673 0 0 0.2011226 0.9117082 0 0 0 0 0.9397213 0 0 0 0 1 0.9165221 -0.1925803 0 0 0.1925396 0.9167156 0 0 0 0 0.9425256 0 0 0 0 1 0.9213566 -0.1840926 0 0 0.1840557 0.9215414 0 0 0 0 0.945272 0 0 0 0 1 0.9260122 -0.1757111 0 0 0.1756777 0.9261881 0 0 0 0 0.9479601 0 0 0 0 1 0.9304911 -0.1674453 0 0 0.1674151 0.9306587 0 0 0 0 0.9505886 0 0 0 0 1 0.9347969 -0.1593009 0 0 0.1592738 0.934956 0 0 0 0 0.9531572 0 0 0 0 1 0.9389322 -0.1512862 0 0 0.1512619 0.9390828 0 0 0 0 0.9556649 0 0 0 0 1 0.9429001 -0.143408 0 0 0.1433863 0.9430427 0 0 0 0 0.9581115 0 0 0 0 1 0.946704 -0.1356733 0 0 0.135654 0.9468385 0 0 0 0 0.9604961 0 0 0 0 1 0.9503469 -0.1280896 0 0 0.1280725 0.9504736 0 0 0 0 0.9628179 0 0 0 0 1 0.9538317 -0.1206641 0 0 0.120649 0.9539511 0 0 0 0 0.9650763 0 0 0 0 1 0.9571624 -0.1134027 0 0 0.1133895 0.9572743 0 0 0 0 0.967271 0 0 0 0 1 0.9603419 -0.1063125 0 0 0.1063009 0.9604465 0 0 0 0 0.9694005 0 0 0 0 1 0.9633735 -0.09940021 0 0 0.09939013 0.9634712 0 0 0 0 0.9714649 0 0 0 0 1 0.9662608 -0.09267095 0 0 0.09266222 0.9663518 0 0 0 0 0.9734633 0 0 0 0 1 0.9690067 -0.08613311 0 0 0.08612561 0.9690911 0 0 0 0 0.9753944 0 0 0 0 1 0.971615 -0.07979144 0 0 0.07978504 0.971693 0 0 0 0 0.9772586 0 0 0 0 1 0.9740887 -0.07365134 0 0 0.07364593 0.9741604 0 0 0 0 0.9790543 0 0 0 0 1 0.9764307 -0.0677205 0 0 0.06771594 0.9764965 0 0 0 0 0.9807814 0 0 0 0 1 0.9786447 -0.06200271 0 0 0.06199888 0.9787051 0 0 0 0 0.982439 0 0 0 0 1 0.9807334 -0.05650484 0 0 0.05650168 0.9807882 0 0 0 0 0.9840266 0 0 0 0 1 0.9827001 -0.05123185 0 0 0.05122926 0.9827498 0 0 0 0 0.9855433 0 0 0 0 1 0.9845476 -0.04618943 0 0 0.04618733 0.9845925 0 0 0 0 0.9869883 0 0 0 0 1 0.9862791 -0.04138222 0 0 0.04138054 0.9863189 0 0 0 0 0.9883612 0 0 0 0 1 0.9878966 -0.03681472 0 0 0.03681339 0.9879323 0 0 0 0 0.9896613 0 0 0 0 1 0.9894034 -0.03249364 0 0 0.03249261 0.9894348 0 0 0 0 0.9908878 0 0 0 0 1 0.9908019 -0.02842179 0 0 0.028421 0.9908292 0 0 0 0 0.9920402 0 0 0 0 1 0.9920943 -0.02460514 0 0 0.02460455 0.992118 0 0 0 0 0.9931176 0 0 0 0 1 0.9932829 -0.02104762 0 0 0.02104719 0.9933031 0 0 0 0 0.9941194 0 0 0 0 1 0.9943694 -0.01775303 0 0 0.01775272 0.9943866 0 0 0 0 0.9950449 0 0 0 0 1 0.9953562 -0.01472598 0 0 0.01472577 0.9953703 0 0 0 0 0.9958938 0 0 0 0 1 0.9962447 -0.01197141 0 0 0.01197127 0.9962563 0 0 0 0 0.9966649 0 0 0 0 1 0.9970365 -0.009492216 0 0 0.009492128 0.9970456 0 0 0 0 0.9973576 0 0 0 0 1 0.9977328 -0.007292571 0 0 0.007292519 0.9977399 0 0 0 0 0.9979714 0 0 0 0 1 0.9983349 -0.005375084 0 0 0.005375056 0.9983402 0 0 0 0 0.9985054 0 0 0 0 1 0.9988438 -0.003745542 0 0 0.003745529 0.9988471 0 0 0 0 0.9989594 0 0 0 0 1 0.9992594 -0.002404348 0 0 0.002404343 0.9992617 0 0 0 0 0.9993322 0 0 0 0 1 0.9995832 -0.001356039 0 0 0.001356037 0.9995845 0 0 0 0 0.9996233 0 0 0 0 1 0.9998145 -6.04994e-4 0 0 6.04994e-4 0.999815 0 0 0 0 0.999832 0 0 0 0 1 0.9999535 -1.5115e-4 0 0 1.5115e-4 0.9999537 0 0 0 0 0.999958 0 0 0 0 1 1 0 0 0 0 1 0 0 0 0 1 0 0 0 0 1</float_array>
          <technique_common>
            <accessor source="#gripper_gripperAction_001_transform-output-array" count="250" stride="16">
              <param name="TRANSFORM" type="float4x4"/>
            </accessor>
          </technique_common>
        </source>
        <source id="gripper_gripperAction_001_transform-interpolation">
          <Name_array id="gripper_gripperAction_001_transform-interpolation-array" count="250">LINEAR LINEAR LINEAR LINEAR LINEAR LINEAR LINEAR LINEAR LINEAR LINEAR LINEAR LINEAR LINEAR LINEAR LINEAR LINEAR LINEAR LINEAR LINEAR LINEAR LINEAR LINEAR LINEAR LINEAR LINEAR LINEAR LINEAR LINEAR LINEAR LINEAR LINEAR LINEAR LINEAR LINEAR LINEAR LINEAR LINEAR LINEAR LINEAR LINEAR LINEAR LINEAR LINEAR LINEAR LINEAR LINEAR LINEAR LINEAR LINEAR LINEAR LINEAR LINEAR LINEAR LINEAR LINEAR LINEAR LINEAR LINEAR LINEAR LINEAR LINEAR LINEAR LINEAR LINEAR LINEAR LINEAR LINEAR LINEAR LINEAR LINEAR LINEAR LINEAR LINEAR LINEAR LINEAR LINEAR LINEAR LINEAR LINEAR LINEAR LINEAR LINEAR LINEAR LINEAR LINEAR LINEAR LINEAR LINEAR LINEAR LINEAR LINEAR LINEAR LINEAR LINEAR LINEAR LINEAR LINEAR LINEAR LINEAR LINEAR LINEAR LINEAR LINEAR LINEAR LINEAR LINEAR LINEAR LINEAR LINEAR LINEAR LINEAR LINEAR LINEAR LINEAR LINEAR LINEAR LINEAR LINEAR LINEAR LINEAR LINEAR LINEAR LINEAR LINEAR LINEAR LINEAR LINEAR LINEAR LINEAR LINEAR LINEAR LINEAR LINEAR LINEAR LINEAR LINEAR LINEAR LINEAR LINEAR LINEAR LINEAR LINEAR LINEAR LINEAR LINEAR LINEAR LINEAR LINEAR LINEAR LINEAR LINEAR LINEAR LINEAR LINEAR LINEAR LINEAR LINEAR LINEAR LINEAR LINEAR LINEAR LINEAR LINEAR LINEAR LINEAR LINEAR LINEAR LINEAR LINEAR LINEAR LINEAR LINEAR LINEAR LINEAR LINEAR LINEAR LINEAR LINEAR LINEAR LINEAR LINEAR LINEAR LINEAR LINEAR LINEAR LINEAR LINEAR LINEAR LINEAR LINEAR LINEAR LINEAR LINEAR LINEAR LINEAR LINEAR LINEAR LINEAR LINEAR LINEAR LINEAR LINEAR LINEAR LINEAR LINEAR LINEAR LINEAR LINEAR LINEAR LINEAR LINEAR LINEAR LINEAR LINEAR LINEAR LINEAR LINEAR LINEAR LINEAR LINEAR LINEAR LINEAR LINEAR LINEAR LINEAR LINEAR LINEAR LINEAR LINEAR LINEAR LINEAR LINEAR LINEAR LINEAR LINEAR LINEAR LINEAR LINEAR LINEAR LINEAR LINEAR LINEAR LINEAR LINEAR LINEAR LINEAR LINEAR LINEAR LINEAR LINEAR</Name_array>
          <technique_common>
            <accessor source="#gripper_gripperAction_001_transform-interpolation-array" count="250" stride="1">
              <param name="INTERPOLATION" type="name"/>
            </accessor>
          </technique_common>
        </source>
        <sampler id="gripper_gripperAction_001_transform-sampler">
          <input semantic="INPUT" source="#gripper_gripperAction_001_transform-input"/>
          <input semantic="OUTPUT" source="#gripper_gripperAction_001_transform-output"/>
          <input semantic="INTERPOLATION" source="#gripper_gripperAction_001_transform-interpolation"/>
        </sampler>
        <channel source="#gripper_gripperAction_001_transform-sampler" target="gripper/transform"/>
      </animation>
    </animation>
  </library_animations>
  <library_visual_scenes>
    <visual_scene id="Scene" name="Scene">
      <node id="gripper" name="gripper" type="NODE">
        <matrix sid="transform">1 0 0 0 0 1 0 0 0 0 1 0 0 0 0 1</matrix>
        <instance_geometry url="#Cube_001-mesh" name="gripper">
          <bind_material>
            <technique_common>
              <instance_material symbol="Material-material" target="#Material-material">
                <bind_vertex_input semantic="UVMap" input_semantic="TEXCOORD" input_set="0"/>
              </instance_material>
            </technique_common>
          </bind_material>
        </instance_geometry>
      </node>
    </visual_scene>
  </library_visual_scenes>
  <scene>
    <instance_visual_scene url="#Scene"/>
  </scene>
</COLLADA>
